<?xml version="1.0" encoding="UTF-8"?>
<svg id="Ebene_1" xmlns="http://www.w3.org/2000/svg" version="1.1" viewBox="0 0 221.989 158.992">
  <!-- Generator: Adobe Illustrator 29.3.1, SVG Export Plug-In . SVG Version: 2.1.0 Build 151)  -->
  <g>
    <g>
      <path d="M86.581,128.519c-.638,0-1.155-.518-1.155-1.155v-13.68l17.23-17.23c.451-.451,1.183-.451,1.634,0,.451.451.451,1.182,0,1.633l-16.554,16.555v12.723c0,.638-.517,1.155-1.155,1.155Z" fill="#fff"/>
      <path d="M68.116,121.709c-.295,0-.591-.113-.817-.339-.451-.451-.451-1.182,0-1.633l6.762-6.763h12.01l5.32-5.318h-13.891c-.638,0-1.155-.518-1.155-1.155s.517-1.155,1.155-1.155h19.468l-9.94,9.939h-12.01l-6.085,6.085c-.226.226-.521.339-.817.339Z" fill="#fff"/>
      <path d="M73.278,110.716c-2.325,0-4.217-1.891-4.217-4.215s1.892-4.221,4.217-4.221,4.217,1.894,4.217,4.221-1.892,4.215-4.217,4.215ZM73.278,104.591c-1.052,0-1.907.856-1.907,1.91s.855,1.904,1.907,1.904,1.907-.854,1.907-1.904-.855-1.91-1.907-1.91Z" fill="#fff"/>
      <path d="M66.023,126.947c-2.326,0-4.218-1.893-4.218-4.218s1.892-4.217,4.218-4.217,4.217,1.892,4.217,4.217-1.892,4.218-4.217,4.218ZM66.023,120.823c-1.052,0-1.908.855-1.908,1.906s.856,1.907,1.908,1.907,1.907-.855,1.907-1.907-.855-1.906-1.907-1.906Z" fill="#fff"/>
      <path d="M86.46,134.748c-2.326,0-4.218-1.893-4.218-4.219s1.892-4.217,4.218-4.217,4.218,1.892,4.218,4.217-1.892,4.219-4.218,4.219ZM86.46,128.623c-1.052,0-1.908.855-1.908,1.906s.856,1.908,1.908,1.908,1.908-.855,1.908-1.908-.856-1.906-1.908-1.906Z" fill="#fff"/>
    </g>
    <g>
      <path d="M98.044,119.027c-.295,0-.591-.113-.817-.339-.451-.451-.451-1.182,0-1.633l8.048-8.048v-12.816c0-.638.517-1.155,1.155-1.155s1.155.518,1.155,1.155v13.773l-8.724,8.724c-.226.226-.521.339-.817.339Z" fill="#fff"/>
      <path d="M104.734,140.695c-.638,0-1.155-.518-1.155-1.155v-13.51l8.882-8.881-6.848-6.848c-.451-.451-.451-1.182,0-1.633.451-.451,1.183-.451,1.634,0l8.481,8.48-9.84,9.838v12.553c0,.638-.517,1.155-1.155,1.155Z" fill="#fff"/>
      <path d="M96.018,124.564c-2.326,0-4.218-1.893-4.218-4.219s1.892-4.217,4.218-4.217,4.217,1.892,4.217,4.217-1.892,4.219-4.217,4.219ZM96.018,118.439c-1.052,0-1.908.855-1.908,1.906s.856,1.908,1.908,1.908,1.907-.855,1.907-1.908-.855-1.906-1.907-1.906Z" fill="#fff"/>
      <path d="M104.55,146.855c-2.325,0-4.216-1.894-4.216-4.22s1.891-4.217,4.216-4.217,4.22,1.892,4.22,4.217-1.893,4.22-4.22,4.22ZM104.55,140.729c-1.051,0-1.906.855-1.906,1.906s.855,1.909,1.906,1.909,1.911-.856,1.911-1.909-.857-1.906-1.911-1.906Z" fill="#fff"/>
    </g>
    <g>
      <path d="M138.798,112.291h-15.934l-14.242-14.244c-.451-.451-.451-1.182,0-1.633.451-.451,1.183-.451,1.634,0l13.565,13.566h14.977c.638,0,1.155.518,1.155,1.155s-.518,1.155-1.155,1.155Z" fill="#fff"/>
      <path d="M123.343,126.202c-.638,0-1.155-.518-1.155-1.155v-16.699l12.404,12.404c.451.451.451,1.182,0,1.633s-1.182.451-1.633,0l-8.461-8.461v11.123c0,.638-.518,1.155-1.155,1.155Z" fill="#fff"/>
      <path d="M123.557,132.781c-2.325,0-4.217-1.893-4.217-4.218s1.892-4.219,4.217-4.219,4.218,1.893,4.218,4.219-1.893,4.218-4.218,4.218ZM123.557,126.655c-1.051,0-1.906.855-1.906,1.908s.855,1.907,1.906,1.907,1.907-.855,1.907-1.907-.855-1.908-1.907-1.908Z" fill="#fff"/>
      <path d="M135.61,128.112c-2.326,0-4.22-1.894-4.22-4.22s1.894-4.219,4.22-4.219,4.217,1.893,4.217,4.219-1.892,4.22-4.217,4.22ZM135.61,121.984c-1.053,0-1.909.855-1.909,1.908s.856,1.909,1.909,1.909,1.906-.856,1.906-1.909-.855-1.908-1.906-1.908Z" fill="#fff"/>
      <path d="M141.757,115.32c-2.326,0-4.219-1.893-4.219-4.218s1.893-4.218,4.219-4.218,4.22,1.893,4.22,4.218-1.894,4.218-4.22,4.218ZM141.757,109.195c-1.053,0-1.908.855-1.908,1.907s.855,1.907,1.908,1.907,1.909-.855,1.909-1.907-.856-1.907-1.909-1.907Z" fill="#fff"/>
    </g>
  </g>
  <g>
    <path d="M153.894,58.135c0,2.398-1.944,4.339-4.34,4.339s-4.34-1.94-4.34-4.339,1.941-4.338,4.34-4.338,4.34,1.941,4.34,4.338Z" fill="#ef7d00"/>
    <path d="M132.802,72.999c0,2.397-1.943,4.339-4.34,4.339s-4.338-1.942-4.338-4.339,1.941-4.341,4.338-4.341,4.34,1.943,4.34,4.341Z" fill="#ef7d00"/>
    <path d="M68.667,53.568c0,2.396-1.942,4.34-4.339,4.34s-4.339-1.944-4.339-4.34,1.943-4.34,4.339-4.34,4.339,1.944,4.339,4.34Z" fill="#ef7d00"/>
    <path d="M88.996,53.247c0,2.397-1.944,4.339-4.339,4.339s-4.338-1.941-4.338-4.339,1.942-4.338,4.338-4.338,4.339,1.941,4.339,4.338Z" fill="#ef7d00"/>
    <path d="M111.424,62.49c0,2.395-1.943,4.339-4.34,4.339s-4.339-1.944-4.339-4.339,1.943-4.341,4.339-4.341,4.34,1.944,4.34,4.341Z" fill="#ef7d00"/>
    <path d="M101.425,33.892c0,2.396-1.942,4.339-4.34,4.339s-4.338-1.942-4.338-4.339,1.943-4.339,4.338-4.339,4.34,1.941,4.34,4.339Z" fill="#ef7d00"/>
    <path d="M134.985,46.922c0,2.396-1.943,4.339-4.34,4.339s-4.338-1.942-4.338-4.339,1.942-4.339,4.338-4.339,4.34,1.942,4.34,4.339Z" fill="#ef7d00"/>
    <path d="M79.364,73.347c0,2.397-1.943,4.339-4.339,4.339s-4.339-1.941-4.339-4.339,1.942-4.338,4.339-4.338,4.339,1.941,4.339,4.338Z" fill="#ef7d00"/>
  </g>
  <g>
    <path d="M112.763,83.202" fill="#86bc25"/>
    <path d="M74.587,39.834s-5.936,3.655-2.439,7.786c5.201-1.988,2.439-7.786,2.439-7.786Z" fill="#86bc25"/>
    <path d="M79.057,44.206s-6.265,3.053-3.194,7.508c5.373-1.466,3.194-7.508,3.194-7.508Z" fill="#86bc25"/>
    <path d="M87.952,30.286s-6.312,2.958-3.308,7.458c5.393-1.381,3.308-7.458,3.308-7.458Z" fill="#86bc25"/>
    <path d="M110.975,27.374s-5.656,4.076-1.869,7.94c5.045-2.355,1.869-7.94,1.869-7.94Z" fill="#86bc25"/>
    <path d="M106.974,22.281s-5.657,4.075-1.871,7.942c5.044-2.357,1.871-7.942,1.871-7.942Z" fill="#86bc25"/>
    <path d="M100.333,17.83s-3.608,5.962,1.388,8.04c3.72-4.142-1.388-8.04-1.388-8.04Z" fill="#86bc25"/>
    <path d="M92.951,20.326s-.093,6.97,5.267,6.231c1.111-5.454-5.267-6.231-5.267-6.231Z" fill="#86bc25"/>
    <path d="M120.335,25.798s-3.668,5.928,1.308,8.051c3.76-4.105-1.308-8.051-1.308-8.051Z" fill="#86bc25"/>
    <path d="M118.047,10.886s-4.863,4.995-.464,8.145c4.56-3.196.464-8.145.464-8.145Z" fill="#86bc25"/>
    <path d="M86.016,23.908s-6.538,2.422-3.92,7.157c5.491-.927,3.92-7.157,3.92-7.157Z" fill="#86bc25"/>
    <path d="M99.723,47.636s-6.968.187-6.014,5.512c5.495.891,6.014-5.512,6.014-5.512Z" fill="#86bc25"/>
    <path d="M100.461,54.498s-6.922-.829-6.751,4.58c5.308,1.68,6.751-4.58,6.751-4.58Z" fill="#86bc25"/>
    <path d="M98.228,41.42s-6.874,1.158-5.184,6.299c5.565.114,5.184-6.299,5.184-6.299Z" fill="#86bc25"/>
    <path d="M59.845,64.3s3.81,5.839,7.846,2.235c-2.12-5.146-7.846-2.235-7.846-2.235Z" fill="#86bc25"/>
    <path d="M66.982,60.833s1.667,6.767,6.667,4.701c-.299-5.56-6.667-4.701-6.667-4.701Z" fill="#86bc25"/>
    <path d="M74.657,59.356s-.905,6.912,4.505,6.801c1.737-5.289-4.505-6.801-4.505-6.801Z" fill="#86bc25"/>
    <path d="M129.134,58.296s1.704,6.759-3.681,7.28c-2.344-5.051,3.681-7.28,3.681-7.28Z" fill="#86bc25"/>
    <path d="M122.268,60.387s2.78,6.393-2.451,7.782c-3.129-4.604,2.451-7.782,2.451-7.782Z" fill="#86bc25"/>
    <path d="M80.359,18.29s-5.501,4.278-1.577,8.003c4.954-2.54,1.577-8.003,1.577-8.003Z" fill="#86bc25"/>
    <path d="M61.116,75.645s6.964-.295,5.926-5.605c-5.509-.805-5.926,5.605-5.926,5.605Z" fill="#86bc25"/>
    <path d="M71.456,24.59s-.21,6.967,5.162,6.317c1.202-5.436-5.162-6.317-5.162-6.317Z" fill="#86bc25"/>
    <path d="M110.732,15.922s-1.568,6.792,3.827,7.205c2.24-5.098-3.827-7.205-3.827-7.205Z" fill="#86bc25"/>
    <path d="M72.191,32.801s1.643,6.775,6.65,4.726c-.282-5.561-6.65-4.726-6.65-4.726Z" fill="#86bc25"/>
    <path d="M114.045,42.322s1.143,6.875,6.285,5.2c.129-5.565-6.285-5.2-6.285-5.2Z" fill="#86bc25"/>
    <path d="M102.78,38.453s-1.568,6.792,3.828,7.205c2.242-5.096-3.828-7.205-3.828-7.205Z" fill="#86bc25"/>
    <path d="M101.643,46.034s-.121,6.97,5.243,6.25c1.13-5.451-5.243-6.25-5.243-6.25Z" fill="#86bc25"/>
    <path d="M115.293,35.486s.384,6.958,5.682,5.854c.732-5.52-5.682-5.854-5.682-5.854Z" fill="#86bc25"/>
    <path d="M112.708,48.211s1.188,6.869,6.321,5.159c.091-5.565-6.321-5.159-6.321-5.159Z" fill="#86bc25"/>
    <path d="M66.883,35.731s-3.625,5.955,1.365,8.043c3.731-4.132-1.365-8.043-1.365-8.043Z" fill="#86bc25"/>
    <path d="M58.892,41.823s1.982,6.684,6.879,4.384c-.561-5.539-6.879-4.384-6.879-4.384Z" fill="#86bc25"/>
    <path d="M139.215,59.696s-6.718-1.864-7.366,3.506c4.993,2.465,7.366-3.506,7.366-3.506Z" fill="#86bc25"/>
    <path d="M139.199,68.918s-3.77-5.863-7.83-2.29c2.084,5.163,7.83,2.29,7.83,2.29Z" fill="#86bc25"/>
    <path d="M150.115,38.471s3.641,5.944-1.342,8.049c-3.744-4.121,1.342-8.049,1.342-8.049Z" fill="#86bc25"/>
    <path d="M144.428,43.364s3.259,6.161-1.852,7.946c-3.471-4.353,1.852-7.946,1.852-7.946Z" fill="#86bc25"/>
    <path d="M139.512,46.862s2.189,6.618-3.145,7.528c-2.703-4.867,3.145-7.528,3.145-7.528Z" fill="#86bc25"/>
    <path d="M159.058,42.554s-6.878-1.135-6.949,4.275c5.229,1.915,6.949-4.275,6.949-4.275Z" fill="#86bc25"/>
    <path d="M140.264,25.787s1.329,6.843-4.078,7.067c-2.06-5.172,4.078-7.067,4.078-7.067Z" fill="#86bc25"/>
    <path d="M133.267,27.168s3.26,6.161-1.848,7.946c-3.474-4.351,1.848-7.946,1.848-7.946Z" fill="#86bc25"/>
    <path d="M126.805,29.553s4.628,5.213.09,8.158c-4.407-3.402-.09-8.158-.09-8.158Z" fill="#86bc25"/>
    <path d="M149.187,30.541s-6.409-2.741-7.769,2.495c4.624,3.106,7.769-2.495,7.769-2.495Z" fill="#86bc25"/>
    <path d="M125.823,18.353s-6.914-.885-6.788,4.524c5.296,1.723,6.788-4.524,6.788-4.524Z" fill="#86bc25"/>
    <path d="M146.281,38.829s-3.693-5.912-7.8-2.389c2.019,5.189,7.8,2.389,7.8,2.389Z" fill="#86bc25"/>
    <path d="M140.994,41.622s-3.694-5.912-7.8-2.39c2.016,5.189,7.8,2.39,7.8,2.39Z" fill="#86bc25"/>
    <path d="M158.949,51.113s-4.96-4.898-8.141-.523c3.161,4.584,8.141.523,8.141.523Z" fill="#86bc25"/>
  </g>
  <g>
    <g>
      <path d="M101.316,97.783c3.039-3.707,3.159-20.769-2.681-28.028-1.653-2.055-6.419-3.857-10.345-5.234-3.353-1.174-6.937-2.501-10.03-5.467-3.093-2.967-10.575-11.247-10.299-12.258.29-1.06,8.608,8.992,12.057,11.403,3.448,2.411,6.209,3.151,9.036,4.143,4.454,1.561,8.746,4.076,11.461,6.073,9.094,6.688,9.299,28.395,9.338,28.877.367,4.578-2.678-3.159-2.272,2.232.022.295-.996,3.157-1.308,3.158-.18,0-.98-3.438-.97-3.632.09-1.818-.761-1.349-1.487-.508-.93,1.078-2.662-.56-2.499-.759h0Z" fill="#fff"/>
      <path d="M90.638,65.207c-.083,0-.165-.008-.246-.028-.624-.134-1.019-.749-.885-1.371,1.017-4.676,1.123-10.641.235-13.3-.885-2.658-.285-5.575.01-8.024.067-.571.964-5.414,1.085-5.877,1.206-4.646.297,6.044.226,6.645-.266,2.219-.039,5.467.683,7.635,1.174,3.524.979,9.002.019,13.41-.116.543-.594.911-1.126.911h0Z" fill="#fff"/>
      <path d="M106.71,93.234c-.593,0-.771-9.268-.822-9.87-.034-.394-.306-7.216,2.438-12.492,1.203-2.312,5.624-7.616,7.331-9.73,2.104-2.605,4.282-5.299,5.348-8.178,1.9-5.133.827-11.825.685-17.308-.142-5.482,3.566,12.48,1.48,18.108-1.199,3.235-3.497,6.079-5.717,8.828-1.711,2.116-3.598,3.997-4.422,6.223-6.139,14.876-1.26,29.174-.547,29.822.437.465-5.742-5.404-5.775-5.404h0Z" fill="#fff"/>
      <path d="M116.003,61.74c-.384,0-.763-.191-.981-.542-.446-.716-1.063-1.559-1.717-2.45-2.336-3.19-5.242-7.16-5.071-11.275.105-2.545,2.061-7.009,4.161-11.935,2.541-5.964,3.557-10.028,4.472-13.077,1.765-5.882-.699,8.184-2.846,13.449-1.859,4.558-3.392,9.518-3.481,11.658-.138,3.306,2.505,6.914,4.629,9.813.679.928,1.321,1.804,1.812,2.592.337.54.174,1.253-.369,1.59-.189.12-.4.176-.609.176h0Z" fill="#fff"/>
      <path d="M80.455,68.339c-8.535-1.152-12.522.946-12.36.29.164-.663,3.239-1.636,9.246-1.534,1.838.029,7.055.08,8.481.189,4.887.379,6.441.815,9.229-.578.571-.286,1.881.301,2.168.873.286.57,2.179,1.498,1.608,1.783-2.462,1.232-14.045-.439-18.371-1.022h-.001Z" fill="#fff"/>
      <path d="M98.465,67.32c-.027,0-.056,0-.083-.003-.637-.044-1.16-.602-1.07-1.233,1.335-9.404,11.547-11.171,8.585-9.639-3.907,2.021-6.138,4.503-6.555,11.721-.035.608-.276-.846-.876-.846h0Z" fill="#fff"/>
      <path d="M109.749,76.708c-.558-.307-.767-1.007-.461-1.568,1.523-2.791,2.584-2.905,5.076-4.21,2.552-1.336,5.138-1.465,7.368-2.324,2.309-.892,6.844-3.263,7.613-3.587,4.44-1.872-2.06,2.424-5.144,3.83-2.155.981-8.139,3.054-8.826,3.418-2.413,1.274-4.475,3.071-4.919,5.795-.07.432-.532-1.259-.709-1.354,0,0,.002,0,.002,0Z" fill="#fff"/>
      <path d="M123.156,46.058c-.258,0,.033-.587-.184-.762-.491-.406-.564-1.135-.158-1.626.442-.537,1.401-.884,1.788-1.354,1.473-1.787,3.338-3.252,5.266-4.205.547-.27,1.523-.702,2.042-.906,3.227-1.276,2.871-1.118,6.252-3.576,3.382-2.457-1.026,2.53-4.645,3.96-.515.205-2.421.973-3.127,1.395-2.783,1.663-3.394,2.866-4.537,4.477-.355.506-1.816,2.282-2.313,2.885-.227.277-.051-.288-.384-.288Z" fill="#fff"/>
      <path d="M89.883,49.239c-.37,0,.073,1.264-.086.9-.813-1.863-2.291-3.559-3.354-4.471-1.637-1.406-3.761-3.422-4.813-5.763-2.259-5.025-3.76-11.761-2.843-12.04.404-.123,1.203,6.315,4.404,11.703,1.539,2.592,3.06,3.513,4.573,4.812,1.132.97,1.976,1.441,3.073,3.054.358.528.221,1.246-.306,1.604-.2.136-.424.199-.648.199,0,0,0,.002,0,.002Z" fill="#fff"/>
      <path d="M110.013,43.503c-.454,0-2.944-4.247-3.697-5.829-1.42-2.981-3.536-6.184-6.139-8.93-3.597-5.406,8.363,7.035,10.901,13.162.247.587-.034,1.264-.624,1.507-.144.062-.294.09-.442.09h0Z" fill="#fff"/>
      <path d="M133.987,57.467c-2.08,0-5.264-.125-7.327-.362-3.51-.402-4.857.412-6.004.731-.615.17-.229-.322-.399-.938-.171-.615.19-1.251.805-1.422,1.544-.43,4.119-.215,7.104.03,4.207.348,9.396.689,12.08-.694,5.11-2.635,7.291-5.07,9.117-6.48,4.107-2.693-3.473,4.959-8.345,7.688-1.838,1.03-4.328,1.447-7.031,1.447Z" fill="#fff"/>
    </g>
    <g>
      <path d="M10.068,92.817l.518-.893c.115-.201.36-.201.49-.101.072.044,1.239.893,2.175.893.749,0,1.311-.49,1.311-1.109,0-.735-.619-1.239-1.829-1.728-1.354-.547-2.708-1.411-2.708-3.111,0-1.282.951-2.765,3.241-2.765,1.469,0,2.592.749,2.88.965.144.086.187.331.087.475l-.547.821c-.115.173-.331.288-.504.173-.115-.072-1.21-.792-2.002-.792-.821,0-1.267.548-1.267,1.009,0,.677.533,1.138,1.7,1.613,1.397.562,3.01,1.397,3.01,3.255,0,1.484-1.282,2.852-3.313,2.852-1.815,0-2.881-.85-3.169-1.123-.13-.13-.201-.202-.072-.432v-.002h-.001Z" fill="#fff"/>
      <path d="M24.357,84.002c2.88,0,5.185,2.319,5.185,5.2s-2.305,5.171-5.185,5.171-5.171-2.29-5.171-5.171,2.29-5.2,5.171-5.2ZM24.357,92.5c1.814,0,3.312-1.484,3.312-3.299s-1.498-3.327-3.312-3.327-3.299,1.512-3.299,3.327,1.484,3.299,3.299,3.299Z" fill="#fff"/>
      <path d="M32.869,84.42c0-.144.115-.274.273-.274h5.862c.159,0,.274.13.274.274v1.181c0,.144-.115.274-.274.274h-4.263v2.708h3.558c.144,0,.274.13.274.274v1.181c0,.144-.13.274-.274.274h-3.558v3.644c0,.144-.13.274-.274.274h-1.325c-.158,0-.273-.13-.273-.274v-9.535h0Z" fill="#fff"/>
      <path d="M43.786,85.875h-2.204c-.158,0-.274-.13-.274-.274v-1.181c0-.144.115-.274.274-.274h6.294c.158,0,.274.13.274.274v1.181c0,.144-.115.274-.274.274h-2.204v8.08c0,.144-.13.274-.274.274h-1.34c-.144,0-.274-.13-.274-.274v-8.08s.002,0,.002,0Z" fill="#fff"/>
      <path d="M50.196,84.492c-.058-.202.057-.346.259-.346h1.325c.115,0,.231.101.259.202l1.498,5.747h.058l2.29-5.934c.029-.086.1-.158.245-.158h.259c.144,0,.216.072.245.158l2.305,5.934h.057l1.469-5.747c.029-.101.144-.202.259-.202h1.325c.201,0,.317.144.259.346l-2.722,9.679c-.029.115-.144.201-.259.201h-.23c-.13,0-.216-.072-.245-.158l-2.578-6.525h-.072l-2.55,6.525c-.043.086-.1.158-.245.158h-.231c-.115,0-.23-.087-.259-.201l-2.722-9.679h0Z" fill="#fff"/>
      <path d="M63.735,93.854l4.479-9.694c.043-.086.115-.158.245-.158h.144c.144,0,.201.072.245.158l4.436,9.694c.087.187-.029.374-.245.374h-1.254c-.216,0-.317-.087-.417-.288l-.706-1.555h-4.307l-.706,1.555c-.057.144-.187.288-.417.288h-1.253c-.216,0-.332-.187-.245-.374h0ZM69.958,90.786l-1.441-3.169h-.043l-1.412,3.169h2.896Z" fill="#fff"/>
      <path d="M76.036,84.42c0-.144.115-.274.273-.274h4.119c1.728,0,3.14,1.383,3.14,3.097,0,1.325-.879,2.405-2.132,2.909l1.973,3.659c.1.188,0,.418-.245.418h-1.513c-.13,0-.201-.072-.23-.13l-1.916-3.817h-1.599v3.673c0,.144-.13.274-.274.274h-1.325c-.158,0-.273-.13-.273-.274v-9.535h.002ZM80.27,88.741c.763,0,1.426-.662,1.426-1.469,0-.763-.662-1.397-1.426-1.397h-2.348v2.866s2.348,0,2.348,0Z" fill="#fff"/>
      <path d="M87.069,84.42c0-.144.115-.274.273-.274h5.862c.159,0,.274.13.274.274v1.181c0,.144-.115.274-.274.274h-4.263v2.362h3.558c.144,0,.274.13.274.274v1.196c0,.158-.13.273-.274.273h-3.558v2.521h4.263c.159,0,.274.13.274.274v1.181c0,.144-.115.274-.274.274h-5.862c-.158,0-.273-.13-.273-.274v-9.535h0Z" fill="#fff"/>
    </g>
    <g>
      <path d="M116.925,84.42c0-.144.115-.274.273-.274h3.385c1.772,0,3.227,1.441,3.227,3.183,0,1.786-1.455,3.241-3.213,3.241h-1.8v3.385c0,.144-.13.274-.274.274h-1.325c-.158,0-.273-.13-.273-.274v-9.535ZM120.469,88.813c.806,0,1.484-.648,1.484-1.498,0-.792-.678-1.397-1.484-1.397h-1.671v2.895s1.671,0,1.671,0Z" fill="#fff"/>
      <path d="M126.892,84.42c0-.144.116-.274.274-.274h1.325c.145,0,.274.13.274.274v8.081h3.674c.159,0,.274.13.274.274v1.181c0,.144-.115.274-.274.274h-5.272c-.158,0-.274-.13-.274-.274v-9.535h0Z" fill="#fff"/>
      <path d="M134.757,93.854l4.48-9.694c.043-.086.115-.158.244-.158h.145c.144,0,.201.072.245.158l4.436,9.694c.086.187-.029.374-.245.374h-1.253c-.215,0-.317-.087-.417-.288l-.705-1.555h-4.307l-.706,1.555c-.057.144-.187.288-.417.288h-1.253c-.216,0-.331-.187-.245-.374h-.002,0ZM140.979,90.786l-1.44-3.169h-.044l-1.411,3.169h2.895Z" fill="#fff"/>
      <path d="M147.058,84.261c0-.144.13-.259.274-.259h.36l5.992,6.367h.014v-5.949c0-.144.115-.274.274-.274h1.325c.145,0,.274.13.274.274v9.694c0,.144-.129.259-.274.259h-.346l-6.021-6.611h-.014v6.193c0,.144-.115.274-.274.274h-1.31c-.144,0-.274-.13-.274-.274v-9.694h0Z" fill="#fff"/>
      <path d="M160.987,85.875h-2.205c-.158,0-.273-.13-.273-.274v-1.181c0-.144.115-.274.273-.274h6.295c.159,0,.274.13.274.274v1.181c0,.144-.115.274-.274.274h-2.204v8.08c0,.144-.13.274-.274.274h-1.339c-.145,0-.274-.13-.274-.274v-8.08h.001Z" fill="#fff"/>
      <path d="M166.43,93.854l4.48-9.694c.043-.086.115-.158.244-.158h.145c.144,0,.202.072.245.158l4.436,9.694c.086.187-.029.374-.245.374h-1.253c-.216,0-.317-.087-.417-.288l-.705-1.555h-4.307l-.707,1.555c-.057.144-.187.288-.417.288h-1.253c-.216,0-.331-.187-.245-.374h0ZM172.652,90.786l-1.44-3.169h-.044l-1.411,3.169h2.895Z" fill="#fff"/>
      <path d="M179.552,85.875h-2.205c-.158,0-.273-.13-.273-.274v-1.181c0-.144.115-.274.273-.274h6.295c.159,0,.274.13.274.274v1.181c0,.144-.115.274-.274.274h-2.204v8.08c0,.144-.13.274-.274.274h-1.339c-.145,0-.274-.13-.274-.274v-8.08h.001Z" fill="#fff"/>
      <path d="M186.854,84.42c0-.144.13-.274.274-.274h1.34c.144,0,.273.13.273.274v9.535c0,.144-.129.274-.273.274h-1.34c-.144,0-.274-.13-.274-.274v-9.535Z" fill="#fff"/>
      <path d="M197.254,84.002c2.88,0,5.185,2.319,5.185,5.2s-2.305,5.171-5.185,5.171-5.171-2.29-5.171-5.171,2.29-5.2,5.171-5.2ZM197.254,92.5c1.815,0,3.313-1.484,3.313-3.299s-1.498-3.327-3.313-3.327-3.299,1.512-3.299,3.327,1.484,3.299,3.299,3.299Z" fill="#fff"/>
      <path d="M205.766,84.261c0-.144.13-.259.274-.259h.36l5.992,6.367h.014v-5.949c0-.144.115-.274.274-.274h1.325c.145,0,.274.13.274.274v9.694c0,.144-.129.259-.274.259h-.346l-6.021-6.611h-.014v6.193c0,.144-.115.274-.274.274h-1.311c-.144,0-.274-.13-.274-.274v-9.694h0Z" fill="#fff"/>
    </g>
  </g>
</svg>