<?xml version="1.0" encoding="UTF-8" standalone="no"?><svg xmlns="http://www.w3.org/2000/svg" xmlns:xlink="http://www.w3.org/1999/xlink" contentScriptType="text/ecmascript" fill="#000000" width="2730.1" zoomAndPan="magnify" contentStyleType="text/css" viewBox="541.4 142.2 2730.1 3684.2" height="3684.2" preserveAspectRatio="xMidYMid meet" version="1"><g id="change1_1"><path d="M3267.57,834.24c0-0.08,0-0.15,0-0.23c-0.38-57.69-23.13-111.86-64.06-152.52c-40.93-40.66-95.25-63.05-152.94-63.05 h-446.88V457.42c0-24.41-19.79-44.19-44.19-44.19h-328.93c-9.41-67.44-40.29-129.72-89.28-178.71 c-59.54-59.54-138.7-92.33-222.9-92.33c-84.2,0-163.36,32.79-222.9,92.33c-48.99,48.99-79.87,111.27-89.28,178.71h-328.93 c-24.41,0-44.19,19.79-44.19,44.19v161.01H758.56c-58.07,0-112.64,22.64-153.64,63.76c-41.01,41.12-63.51,95.74-63.36,153.81 l7.14,2773.91c0.15,57.86,22.79,112.23,63.76,153.09c40.97,40.86,95.39,63.36,153.25,63.36h2275.89 c61.46,0,119.23-23.95,162.65-67.44c43.43-43.49,67.3-101.29,67.21-162.75L3267.57,834.24z M1321.48,501.61h325.87 c24.41,0,44.19-19.79,44.19-44.19c0-125.08,101.76-226.84,226.84-226.84c125.08,0,226.84,101.76,226.84,226.84 c0,24.41,19.79,44.19,44.19,44.19h325.87v349.44H1321.48V501.61z M3141.7,3696.46c-26.73,26.77-62.28,41.51-100.11,41.51H765.7 c-70.74,0-128.44-57.55-128.62-128.29l-7.14-2773.91c-0.09-34.42,13.25-66.79,37.55-91.16c24.31-24.37,56.65-37.79,91.06-37.79 h474.53v188.43c0,24.41,19.79,44.19,44.19,44.19h1282.21c24.41,0,44.19-19.79,44.19-44.19V706.82h446.88 c34.2,0,66.39,13.27,90.65,37.37c24.25,24.09,37.74,56.18,37.97,90.36l3.88,2761.73 C3183.12,3634.12,3168.43,3669.69,3141.7,3696.46z"/><path d="M1918.39,325.58c-68.26,0-123.79,55.53-123.79,123.79s55.53,123.79,123.79,123.79s123.79-55.53,123.79-123.79 S1986.65,325.58,1918.39,325.58z M1918.39,484.78c-19.52,0-35.41-15.88-35.41-35.41c0-19.52,15.88-35.41,35.41-35.41 s35.41,15.88,35.41,35.41C1953.79,468.9,1937.91,484.78,1918.39,484.78z"/><path d="M2631.31,1530.89c105.35,0,191.06-85.71,191.06-191.06c0-105.35-85.71-191.06-191.06-191.06 c-105.35,0-191.06,85.71-191.06,191.06C2440.25,1445.18,2525.96,1530.89,2631.31,1530.89z M2631.31,1237.16 c56.61,0,102.67,46.06,102.67,102.67c0,56.61-46.06,102.67-102.67,102.67c-56.61,0-102.67-46.06-102.67-102.67 C2528.64,1283.21,2574.7,1237.16,2631.31,1237.16z"/><path d="M1227.31,1903.64c8.63,8.63,19.94,12.94,31.25,12.94s22.62-4.31,31.25-12.94l85.43-85.43l85.43,85.43 c8.63,8.63,19.94,12.94,31.25,12.94s22.62-4.31,31.25-12.94c17.26-17.26,17.26-45.24,0-62.5l-85.43-85.43l85.43-85.43 c17.26-17.26,17.26-45.24,0-62.5s-45.24-17.26-62.5,0l-85.43,85.43l-85.43-85.43c-17.26-17.26-45.24-17.26-62.5,0 s-17.26,45.24,0,62.5l85.43,85.43l-85.43,85.43C1210.05,1858.4,1210.05,1886.38,1227.31,1903.64z"/><path d="M1904,2842.88c-17.26-17.26-45.24-17.26-62.5,0l-85.43,85.43l-85.43-85.43c-17.26-17.26-45.24-17.26-62.5,0 s-17.26,45.24,0,62.5l85.43,85.43l-85.43,85.43c-17.26,17.26-17.26,45.24,0,62.5c8.63,8.63,19.94,12.94,31.25,12.94 c11.31,0,22.62-4.31,31.25-12.94l85.43-85.43l85.43,85.43c8.63,8.63,19.94,12.94,31.25,12.94s22.62-4.31,31.25-12.94 c17.26-17.26,17.26-45.24,0-62.5l-85.43-85.43l85.43-85.43C1921.26,2888.12,1921.26,2860.13,1904,2842.88z"/><path d="M2620.69,2557.52c-17.26-17.26-45.24-17.26-62.5,0l-85.43,85.43l-85.43-85.43c-17.26-17.26-45.24-17.26-62.5,0 s-17.26,45.24,0,62.5l85.43,85.43l-85.43,85.43c-17.26,17.26-17.26,45.24,0,62.5c8.63,8.63,19.94,12.94,31.25,12.94 c11.31,0,22.62-4.31,31.25-12.94l85.43-85.43l85.43,85.43c8.63,8.63,19.94,12.94,31.25,12.94s22.62-4.31,31.25-12.94 c17.26-17.26,17.26-45.24,0-62.5l-85.43-85.43l85.43-85.43C2637.95,2602.77,2637.95,2574.78,2620.69,2557.52z"/><path d="M2662.57,1674.16c-8.29-8.29-19.53-12.94-31.25-12.94c-11.72,0-22.96,4.66-31.25,12.94l-155.25,155.25 c-17.26,17.26-17.26,45.24,0,62.5c17.26,17.26,45.24,17.26,62.5,0l79.8-79.8v266.44c0,88.91-72.34,161.25-161.25,161.25H1317.14 c-66.68,0-129.37,25.97-176.52,73.12c-47.15,47.15-73.12,109.84-73.12,176.52v546.55c-84.11,20-146.87,95.75-146.87,185.89 c0,105.35,85.71,191.06,191.06,191.06c105.35,0,191.06-85.71,191.06-191.06c0-90.14-62.75-165.9-146.86-185.89v-546.55 c0-88.91,72.34-161.25,161.25-161.25h1108.73c66.68,0,129.37-25.97,176.52-73.12c47.15-47.15,73.12-109.84,73.12-176.52V1812.1 l79.8,79.8c8.63,8.63,19.94,12.95,31.25,12.94c11.31,0,22.62-4.32,31.25-12.94c17.26-17.26,17.26-45.24,0-62.5L2662.57,1674.16z M1214.36,3221.87c0,56.61-46.06,102.67-102.67,102.67c-56.61,0-102.67-46.06-102.67-102.67c0-56.61,46.06-102.67,102.67-102.67 C1168.31,3119.2,1214.36,3165.26,1214.36,3221.87z"/></g></svg>