<?xml version="1.0" encoding="UTF-8" standalone="no"?><svg xmlns="http://www.w3.org/2000/svg" xmlns:xlink="http://www.w3.org/1999/xlink" contentScriptType="text/ecmascript" fill="#000000" width="126" zoomAndPan="magnify" contentStyleType="text/css" viewBox="0.0 0.0 126.0 95.3" height="95.3" preserveAspectRatio="xMidYMid meet" version="1"><g id="change1_1"><circle fill="inherit" r="1.5" cx="88.47" cy="22.15"/><path fill="inherit" d="M28.46,42.77c0.553,0,1-0.448,1-1V30.6c0-0.552-0.447-1-1-1s-1,0.448-1,1v11.17C27.46,42.322,27.907,42.77,28.46,42.77z"/><path fill="inherit" d="M23.37,42.77c0.553,0,1-0.448,1-1V30.6c0-0.552-0.447-1-1-1s-1,0.448-1,1v11.17C22.37,42.322,22.817,42.77,23.37,42.77z"/><path fill="inherit" d="M33.5,42.77c0.553,0,1-0.448,1-1V30.6c0-0.552-0.447-1-1-1s-1,0.448-1,1v11.17C32.5,42.322,32.947,42.77,33.5,42.77z"/><path fill="inherit" d="M50.03,42.77c0.553,0,1-0.448,1-1V30.6c0-0.552-0.447-1-1-1s-1,0.448-1,1v11.17C49.03,42.322,49.478,42.77,50.03,42.77z"/><path fill="inherit" d="M44.93,42.77c0.553,0,1-0.448,1-1V30.6c0-0.552-0.447-1-1-1s-1,0.448-1,1v11.17C43.93,42.322,44.377,42.77,44.93,42.77z"/><path fill="inherit" d="M55.07,42.77c0.553,0,1-0.448,1-1V30.6c0-0.552-0.447-1-1-1s-1,0.448-1,1v11.17C54.07,42.322,54.518,42.77,55.07,42.77z"/><path fill="inherit" d="M71.43,42.77c0.553,0,1-0.448,1-1V30.6c0-0.552-0.447-1-1-1s-1,0.448-1,1v11.17C70.43,42.322,70.877,42.77,71.43,42.77z"/><path fill="inherit" d="M66.34,42.77c0.553,0,1-0.448,1-1V30.6c0-0.552-0.447-1-1-1s-1,0.448-1,1v11.17C65.34,42.322,65.787,42.77,66.34,42.77z"/><path fill="inherit" d="M76.47,42.77c0.553,0,1-0.448,1-1V30.6c0-0.552-0.447-1-1-1s-1,0.448-1,1v11.17C75.47,42.322,75.917,42.77,76.47,42.77z"/><path fill="inherit" d="M114.32,49.03H98.52c-0.553,0-1,0.447-1,1v4.75c0,0.553,0.447,1,1,1h15.801c0.553,0,1-0.447,1-1v-4.75 C115.32,49.478,114.873,49.03,114.32,49.03z M113.32,53.78H99.52v-2.75h13.801V53.78z"/><path fill="inherit" d="M114.32,35.15H98.52c-0.553,0-1,0.448-1,1v4.75c0,0.552,0.447,1,1,1h15.801c0.553,0,1-0.448,1-1v-4.75 C115.32,35.598,114.873,35.15,114.32,35.15z M113.32,39.9H99.52v-2.75h13.801V39.9z"/><path fill="inherit" d="M125,41.95h-6.19v-9.8c0-0.552-0.447-1-1-1h-9.13v-3.24c0-0.552-0.447-1-1-1H95.03c-0.553,0-1,0.448-1,1v31.779h-1.74 V26.267c1.153-1.059,1.81-2.53,1.81-4.117c0-2.996-2.354-5.446-5.309-5.614L63.544,0.161c-0.024-0.016-0.052-0.017-0.078-0.031 c-0.06-0.032-0.121-0.054-0.187-0.074c-0.066-0.019-0.129-0.034-0.197-0.04C63.054,0.014,63.029,0,63,0h-4.42c-0.553,0-1,0.448-1,1 v3.38c0,0.552,0.447,1,1,1h1.21v5.65h-2.26c-0.553,0-1,0.448-1,1v4.22c0,0.552,0.447,1,1,1h6.52c0.553,0,1-0.448,1-1v-4.22 c0-0.552-0.447-1-1-1h-2.26V5.38h0.855l20.229,16.466c-0.005,0.102-0.025,0.201-0.025,0.304c0,1.581,0.653,3.052,1.801,4.115 v33.425H82.26V46.32V25.97c0-0.552-0.447-1-1-1H18.75c-0.553,0-1,0.448-1,1v20.35v13.37h-9.9c-0.553,0-1,0.447-1,1 c0,1.608,0.101,3.238,0.298,4.844c0.798,6.438,3.273,12.074,7.145,16.417C10.672,84.01,5.81,85.229,1,85.229c-0.553,0-1,0.447-1,1 s0.447,1,1,1c5.64,0,11.396-1.572,15.395-4.201c1.2-0.78,2.245-1.655,3.119-2.611c1.876,2.104,6.956,6.813,14.826,6.813 c8.248,0,16.055-5.206,18.509-7.008c1.773,1.974,7.087,7.008,15.142,7.008c8.016,0,16.74-5.487,19.715-7.533 c1.156,2.433,4.46,7.533,11.835,7.533c7.402,0,13.349-5.075,15.646-7.354c0.49,0.934,1.083,1.954,1.787,2.904 c0.002,0.003,0.004,0.005,0.006,0.007c0.002,0.002,0.004,0.005,0.006,0.007c2.187,2.985,4.809,4.436,8.016,4.436 c0.553,0,1-0.447,1-1s-0.447-1-1-1c-2.38,0-4.305-1.01-6.021-3.139c3.236-5.706,5.167-11.128,5.873-16.551 c0.211-1.62,0.318-3.252,0.318-4.85c0-0.553-0.447-1-1-1h-5.36V53.4H125c0.553,0,1-0.447,1-1V42.95 C126,42.397,125.553,41.95,125,41.95z M124,46.67h-1.6v-2.72h1.6V46.67z M120.4,43.95v2.72h-1.591v-2.72H120.4z M92.1,22.15 c0,1.133-0.517,2.178-1.419,2.868c-1.282,0.985-3.144,0.983-4.419,0.001c-0.897-0.693-1.412-1.739-1.412-2.869 c0-0.203,0.016-0.398,0.048-0.589c0.287-1.762,1.79-3.041,3.572-3.041C90.472,18.52,92.1,20.148,92.1,22.15z M62,3.38h-2.42V2H62 V3.38z M76.47,49.95c-0.553,0-1,0.447-1,1v8.739h-3.04V50.95c0-0.553-0.447-1-1-1s-1,0.447-1,1v8.739h-3.09V50.95 c0-0.553-0.447-1-1-1s-1,0.447-1,1v8.739h-3.55V47.32h18.47v12.37h-2.79V50.95C77.47,50.397,77.022,49.95,76.47,49.95z M56.07,59.689V50.95c0-0.553-0.447-1-1-1s-1,0.447-1,1v8.739h-3.04V50.95c0-0.553-0.447-1-1-1s-1,0.447-1,1v8.739H45.93V50.95 c0-0.553-0.447-1-1-1s-1,0.447-1,1v8.739H40V47.32h19.79v12.37H56.07z M34.5,59.689V50.95c0-0.553-0.447-1-1-1s-1,0.447-1,1v8.739 h-3.04V50.95c0-0.553-0.447-1-1-1s-1,0.447-1,1v8.739h-3.09V50.95c0-0.553-0.447-1-1-1s-1,0.447-1,1v8.739h-2.62V47.32H38v12.37 H34.5z M59.79,45.32H40V26.97h19.79V45.32z M80.26,45.32H61.79V26.97h18.47V45.32z M38,26.97v18.35H19.75V26.97H38z M122.96,64.41 H9.045c-0.09-0.905-0.158-1.814-0.182-2.721h9.887h62.51h4.391h5.64h31.865C123.129,62.591,123.056,63.501,122.96,64.41z M96.03,59.689V28.91h10.649v3.24c0,0.552,0.447,1,1,1h9.13v26.54H96.03z M118.81,51.4v-2.73H124v2.73H118.81z"/><path fill="inherit" d="M19.442,84.499c-0.376-0.404-1.01-0.428-1.413-0.052c-3.438,3.192-7.436,4.885-12.22,5.175 c-0.551,0.033-0.971,0.507-0.938,1.059c0.032,0.53,0.473,0.939,0.997,0.939c0.021,0,0.041-0.001,0.062-0.002 c5.191-0.314,9.721-2.233,13.46-5.706C19.795,85.537,19.818,84.904,19.442,84.499z"/><path fill="inherit" d="M52.572,84.499c-0.375-0.404-1.01-0.428-1.413-0.052c-3.438,3.192-7.436,4.885-12.22,5.175 c-0.551,0.033-0.971,0.507-0.938,1.059c0.032,0.53,0.473,0.939,0.997,0.939c0.021,0,0.041-0.001,0.062-0.002 c5.191-0.314,9.721-2.233,13.46-5.706C52.925,85.537,52.948,84.904,52.572,84.499z"/><path fill="inherit" d="M85.702,84.499c-0.376-0.404-1.01-0.428-1.413-0.052c-3.438,3.192-7.436,4.885-12.22,5.175 c-0.551,0.033-0.971,0.507-0.938,1.059c0.032,0.53,0.473,0.939,0.997,0.939c0.021,0,0.041-0.001,0.062-0.002 c5.191-0.314,9.721-2.233,13.46-5.706C86.055,85.537,86.078,84.904,85.702,84.499z"/><path fill="inherit" d="M113.935,84.5c-0.376-0.406-1.01-0.43-1.414-0.055c-3.45,3.194-7.447,4.887-12.221,5.177 c-0.551,0.033-0.971,0.507-0.938,1.059c0.032,0.53,0.473,0.939,0.997,0.939c0.021,0,0.041-0.001,0.062-0.002 c5.18-0.314,9.708-2.233,13.459-5.704C114.285,85.538,114.31,84.905,113.935,84.5z"/><path fill="inherit" d="M125,93.34c-4.949,0-8.247-1.321-10.081-4.039c-0.31-0.457-0.93-0.577-1.389-0.27c-0.458,0.31-0.578,0.931-0.27,1.389 c2.203,3.265,6.153,4.92,11.739,4.92c0.553,0,1-0.447,1-1S125.553,93.34,125,93.34z"/><path fill="inherit" d="M96.8,93.34c-4.949,0-8.247-1.321-10.081-4.039c-0.309-0.457-0.929-0.577-1.389-0.27c-0.458,0.31-0.578,0.931-0.27,1.389 c2.203,3.265,6.153,4.92,11.739,4.92c0.553,0,1-0.447,1-1S97.353,93.34,96.8,93.34z"/><path fill="inherit" d="M63.15,93.34c-4.949,0-8.247-1.321-10.081-4.039c-0.309-0.457-0.929-0.577-1.389-0.27c-0.458,0.31-0.578,0.931-0.27,1.389 c2.203,3.265,6.153,4.92,11.739,4.92c0.553,0,1-0.447,1-1S63.703,93.34,63.15,93.34z"/><path fill="inherit" d="M30.3,93.34c-4.949,0-8.247-1.321-10.081-4.039c-0.31-0.457-0.93-0.577-1.389-0.27c-0.458,0.31-0.578,0.931-0.27,1.389 c2.203,3.265,6.153,4.92,11.739,4.92c0.553,0,1-0.447,1-1S30.853,93.34,30.3,93.34z"/></g></svg>