<?xml version="1.0" encoding="UTF-8" standalone="no"?><svg xmlns="http://www.w3.org/2000/svg" xmlns:xlink="http://www.w3.org/1999/xlink" contentScriptType="text/ecmascript" fill="#000000" width="283" zoomAndPan="magnify" contentStyleType="text/css" viewBox="0 0 283.465 283.465" height="283" preserveAspectRatio="xMidYMid meet" version="1"><g><path fill="#ef7d00" d="M139.974,95.501c-21.643,1.939-38.558,20.166-38.558,42.306,0,23.428,19.06,42.487,42.487,42.487h67.904l8.503,10.233-8.503,9.767h-67.904c-34.456,0-62.487-28.031-62.487-62.487,0-33.136,25.677-60.311,57.869-62.338l-6.738,10.178,7.427,9.854Z"/><path fill="#86bc25" d="M143.695,200.369h-57.21l8.504-9.635-8.504-10.365h57.21c23.428,0,42.487-19.06,42.487-42.487s-18.629-42.426-41.637-42.487l-7.366-9.717,6.515-10.283c34.456,0,62.487,28.032,62.487,62.487s-28.031,62.487-62.487,62.487Z"/><path fill="#685e56" d="M25.732 200.369L34.342 190.601 25.732 180.369 82.014 180.369 90.624 190.601 82.014 200.369 25.732 200.369z"/></g></svg>