<?xml version="1.0" encoding="UTF-8" standalone="no"?><svg xmlns="http://www.w3.org/2000/svg" xmlns:xlink="http://www.w3.org/1999/xlink" contentScriptType="text/ecmascript" fill="#000000" width="284" zoomAndPan="magnify" contentStyleType="text/css" viewBox="0 0 283.5 283.5" height="284" preserveAspectRatio="xMidYMid meet" version="1"><g fill="#383129"><g><g><path d="M117.2,188.3c-.6,0-1.2-.5-1.2-1.2v-13.7l17.2-17.2c.5-.5,1.2-.5,1.6,0,.5.5.5,1.2,0,1.6l-16.6,16.6v12.7c0,.6-.5,1.2-1.2,1.2h0Z"/><path d="M98.7,181.5c-.3,0-.6-.1-.8-.3-.5-.5-.5-1.2,0-1.6l6.8-6.8h12l5.3-5.3h-13.9c-.6,0-1.2-.5-1.2-1.2s.5-1.2,1.2-1.2h19.5l-9.9,9.9h-12l-6.1,6.1c-.2.2-.5.3-.8.3Z"/><path d="M103.9,170.5c-2.3,0-4.2-1.9-4.2-4.2s1.9-4.2,4.2-4.2,4.2,1.9,4.2,4.2-1.9,4.2-4.2,4.2ZM103.9,164.3c-1.1,0-1.9.9-1.9,1.9s.9,1.9,1.9,1.9,1.9-.9,1.9-1.9-.9-1.9-1.9-1.9Z"/><path d="M96.7,186.7c-2.3,0-4.2-1.9-4.2-4.2s1.9-4.2,4.2-4.2,4.2,1.9,4.2,4.2-1.9,4.2-4.2,4.2ZM96.7,180.6c-1.1,0-1.9.9-1.9,1.9s.9,1.9,1.9,1.9,1.9-.9,1.9-1.9-.9-1.9-1.9-1.9Z"/><path d="M117.1,194.5c-2.3,0-4.2-1.9-4.2-4.2s1.9-4.2,4.2-4.2,4.2,1.9,4.2,4.2-1.9,4.2-4.2,4.2ZM117.1,188.4c-1.1,0-1.9.9-1.9,1.9s.9,1.9,1.9,1.9,1.9-.9,1.9-1.9-.9-1.9-1.9-1.9Z"/></g><g><path d="M128.7,178.8c-.3,0-.6-.1-.8-.3-.5-.5-.5-1.2,0-1.6l8-8v-12.8c0-.6.5-1.2,1.2-1.2s1.2.5,1.2,1.2v13.8l-8.7,8.7c-.2.2-.5.3-.8.3Z"/><path d="M135.4,200.4c-.6,0-1.2-.5-1.2-1.2v-13.5l8.9-8.9-6.8-6.8c-.5-.5-.5-1.2,0-1.6.5-.5,1.2-.5,1.6,0l8.5,8.5-9.8,9.8v12.6c0,.6-.5,1.2-1.2,1.2h0Z"/><path d="M126.6,184.3c-2.3,0-4.2-1.9-4.2-4.2s1.9-4.2,4.2-4.2,4.2,1.9,4.2,4.2-1.9,4.2-4.2,4.2ZM126.6,178.2c-1.1,0-1.9.9-1.9,1.9s.9,1.9,1.9,1.9,1.9-.9,1.9-1.9-.9-1.9-1.9-1.9Z"/><path d="M135.2,206.6c-2.3,0-4.2-1.9-4.2-4.2s1.9-4.2,4.2-4.2,4.2,1.9,4.2,4.2-1.9,4.2-4.2,4.2ZM135.2,200.5c-1.1,0-1.9.9-1.9,1.9s.9,1.9,1.9,1.9,1.9-.9,1.9-1.9-.9-1.9-1.9-1.9Z"/></g><g><path d="M169.4,172h-15.9l-14.2-14.2c-.5-.5-.5-1.2,0-1.6.5-.5,1.2-.5,1.6,0l13.6,13.6h15c.6,0,1.2.5,1.2,1.2s-.5,1.2-1.2,1.2h0Z"/><path d="M154,185.9c-.6,0-1.2-.5-1.2-1.2v-16.7l12.4,12.4c.5.5.5,1.2,0,1.6s-1.2.5-1.6,0l-8.5-8.5v11.1c0,.6-.5,1.2-1.2,1.2h0Z"/><path d="M154.2,192.5c-2.3,0-4.2-1.9-4.2-4.2s1.9-4.2,4.2-4.2,4.2,1.9,4.2,4.2-1.9,4.2-4.2,4.2ZM154.2,186.4c-1.1,0-1.9.9-1.9,1.9s.9,1.9,1.9,1.9,1.9-.9,1.9-1.9-.9-1.9-1.9-1.9Z"/><path d="M166.2,187.9c-2.3,0-4.2-1.9-4.2-4.2s1.9-4.2,4.2-4.2,4.2,1.9,4.2,4.2-1.9,4.2-4.2,4.2ZM166.2,181.7c-1.1,0-1.9.9-1.9,1.9s.9,1.9,1.9,1.9,1.9-.9,1.9-1.9-.9-1.9-1.9-1.9Z"/><path d="M172.7,175.1c-2.3,0-4.2-1.9-4.2-4.2s1.9-4.2,4.2-4.2,4.2,1.9,4.2,4.2-1.9,4.2-4.2,4.2ZM172.7,168.9c-1.1,0-1.9.9-1.9,1.9s.9,1.9,1.9,1.9,1.9-.9,1.9-1.9-.9-1.9-1.9-1.9Z"/></g></g><g><path d="M131.9,157.5c3-3.7,3.2-20.8-2.7-28-1.7-2.1-6.4-3.9-10.3-5.2-3.4-1.2-6.9-2.5-10-5.5-3.1-3-10.6-11.2-10.3-12.3.3-1.1,8.6,9,12.1,11.4,3.4,2.4,6.2,3.2,9,4.1,4.5,1.6,8.7,4.1,11.5,6.1,9.1,6.7,9.3,28.4,9.3,28.9.4,4.6-2.7-3.2-2.3,2.2,0,.3-1,3.2-1.3,3.2-.2,0-1-3.4-1-3.6,0-1.8-.8-1.3-1.5-.5-.9,1.1-2.7-.6-2.5-.8h0Z"/><path d="M121.3,124.9c0,0-.2,0-.2,0-.6-.1-1-.7-.9-1.4,1-4.7,1.1-10.6.2-13.3-.9-2.7-.3-5.6,0-8,0-.6,1-5.4,1.1-5.9,1.2-4.6.3,6,.2,6.6-.3,2.2,0,5.5.7,7.6,1.2,3.5,1,9,0,13.4-.1.5-.6.9-1.1.9h0Z"/><path d="M137.3,153c-.6,0-.8-9.3-.8-9.9,0-.4-.3-7.2,2.4-12.5,1.2-2.3,5.6-7.6,7.3-9.7,2.1-2.6,4.3-5.3,5.3-8.2,1.9-5.1.8-11.8.7-17.3-.1-5.5,3.6,12.5,1.5,18.1-1.2,3.2-3.5,6.1-5.7,8.8-1.7,2.1-3.6,4-4.4,6.2-6.1,14.9-1.3,29.2-.5,29.8.4.5-5.7-5.4-5.8-5.4h0Z"/><path d="M146.6,121.5c-.4,0-.8-.2-1-.5-.4-.7-1.1-1.6-1.7-2.5-2.3-3.2-5.2-7.2-5.1-11.3.1-2.5,2.1-7,4.2-11.9,2.5-6,3.6-10,4.5-13.1,1.8-5.9-.7,8.2-2.8,13.4-1.9,4.6-3.4,9.5-3.5,11.7-.1,3.3,2.5,6.9,4.6,9.8.7.9,1.3,1.8,1.8,2.6.3.5.2,1.3-.4,1.6-.2.1-.4.2-.6.2h0Z"/><path d="M111.1,128.1c-8.5-1.2-12.5.9-12.4.3.2-.7,3.2-1.6,9.2-1.5,1.8,0,7.1,0,8.5.2,4.9.4,6.4.8,9.2-.6.6-.3,1.9.3,2.2.9.3.6,2.2,1.5,1.6,1.8-2.5,1.2-14-.4-18.4-1h0Z"/><path d="M129.1,127.1s0,0,0,0c-.6,0-1.2-.6-1.1-1.2,1.3-9.4,11.5-11.2,8.6-9.6-3.9,2-6.1,4.5-6.6,11.7,0,.6-.3-.8-.9-.8h0Z"/><path d="M140.4,136.4c-.6-.3-.8-1-.5-1.6,1.5-2.8,2.6-2.9,5.1-4.2,2.6-1.3,5.1-1.5,7.4-2.3,2.3-.9,6.8-3.3,7.6-3.6,4.4-1.9-2.1,2.4-5.1,3.8-2.2,1-8.1,3.1-8.8,3.4-2.4,1.3-4.5,3.1-4.9,5.8,0,.4-.5-1.3-.7-1.4,0,0,0,0,0,0Z"/><path d="M153.8,105.8c-.3,0,0-.6-.2-.8-.5-.4-.6-1.1-.2-1.6.4-.5,1.4-.9,1.8-1.4,1.5-1.8,3.3-3.3,5.3-4.2.5-.3,1.5-.7,2-.9,3.2-1.3,2.9-1.1,6.3-3.6,3.4-2.5-1,2.5-4.6,4-.5.2-2.4,1-3.1,1.4-2.8,1.7-3.4,2.9-4.5,4.5-.4.5-1.8,2.3-2.3,2.9-.2.3,0-.3-.4-.3Z"/><path d="M120.5,109c-.4,0,0,1.3,0,.9-.8-1.9-2.3-3.6-3.4-4.5-1.6-1.4-3.8-3.4-4.8-5.8-2.3-5-3.8-11.8-2.8-12,.4-.1,1.2,6.3,4.4,11.7,1.5,2.6,3.1,3.5,4.6,4.8,1.1,1,2,1.4,3.1,3.1.4.5.2,1.2-.3,1.6-.2.1-.4.2-.6.2,0,0,0,0,0,0Z"/><path d="M140.6,103.2c-.5,0-2.9-4.2-3.7-5.8-1.4-3-3.5-6.2-6.1-8.9-3.6-5.4,8.4,7,10.9,13.2.2.6,0,1.3-.6,1.5-.1,0-.3,0-.4,0h0Z"/><path d="M164.6,117.2c-2.1,0-5.3-.1-7.3-.4-3.5-.4-4.9.4-6,.7-.6.2-.2-.3-.4-.9-.2-.6.2-1.3.8-1.4,1.5-.4,4.1-.2,7.1,0,4.2.3,9.4.7,12.1-.7,5.1-2.6,7.3-5.1,9.1-6.5,4.1-2.7-3.5,5-8.3,7.7-1.8,1-4.3,1.4-7,1.4Z"/></g></g></svg>