<?xml version="1.0" encoding="UTF-8" standalone="no"?><svg xmlns="http://www.w3.org/2000/svg" xmlns:xlink="http://www.w3.org/1999/xlink" contentScriptType="text/ecmascript" fill="#000000" width="155" zoomAndPan="magnify" contentStyleType="text/css" viewBox="0 0 154.839 283.465" height="283" preserveAspectRatio="xMidYMid meet" version="1"><path fill="#3a3128" d="M51.6,238.409c-6.273,0-11.378-5.104-11.378-11.381s5.104-11.375,11.378-11.375,11.375,5.101,11.375,11.375-5.101,11.381-11.375,11.381ZM51.6,221.888c-2.838,0-5.146,2.308-5.146,5.143s2.308,5.146,5.146,5.146,5.146-2.308,5.146-5.146-2.308-5.143-5.146-5.143Z"/><path fill="#87bd27" d="M49.373,58.03s20.894-.093,18.535,15.952c-16.38,3.186-18.535-15.952-18.535-15.952Z"/><path fill="#87bd27" d="M49.403,78.038s-10.203,18.233,4.976,23.943c10.721-12.787-4.976-23.943-4.976-23.943Z"/><path fill="#87bd27" d="M46.505,40.727s20.816-1.837,19.806,14.348c-16.063,4.541-19.806-14.348-19.806-14.348Z"/><path fill="#87bd27" d="M54.358,19.194s20.391,4.523,14.549,19.65c-16.68-.519-14.549-19.65-14.549-19.65Z"/><path fill="#87bd27" d="M83.507,26.199s9.517,18.598-5.869,23.736c-10.236-13.179,5.869-23.736,5.869-23.736Z"/><path fill="#87bd27" d="M92.81,48.223s4.25,20.46-11.941,21.338c-6.378-15.424,11.941-21.338,11.941-21.338Z"/><path fill="#3a3128" d="M74.263,119.985c-.132-5.377.291-.393-.381-29.128-.671-28.735-5.05-48.038-3.923-48.206,2.557-.381,9.427,44.279,9.726,59.137.141,6.921.438,38.45.581,44.267l.225,55.28-21.224,21.224c-.608.608-1.406.914-2.203.914s-1.595-.306-2.203-.914c-1.217-1.217-1.217-3.186,0-4.406l19.402-19.402v-78.77.003Z"/><path fill="#3a3128" d="M86.249,260.464c-4.436,4.436-11.657,4.436-16.093,0-4.436-4.436-4.433-11.654,0-16.09,4.433-4.436,11.651-4.436,16.087,0,4.436,4.436,4.439,11.657.003,16.09h.003ZM74.566,248.78c-2.008,2.008-2.008,5.272-.003,7.278s5.272,2.008,7.28,0,2.005-5.269,0-7.278c-2.005-2.008-5.269-2.005-7.275,0h-.003Z"/><path fill="#3a3128" d="M80.464,191.288v52.543c0,.86-.351,1.643-.914,2.206s-1.343.911-2.206.911c-1.72,0-3.114-1.394-3.114-3.114v-49.965"/><path fill="#3a3128" d="M123.746,233.515c0,6.273-5.104,11.378-11.381,11.378s-11.375-5.104-11.375-11.378,5.101-11.375,11.375-11.375,11.381,5.101,11.381,11.375ZM107.222,233.515c0,2.838,2.308,5.146,5.143,5.146s5.146-2.308,5.146-5.146-2.308-5.146-5.146-5.146-5.143,2.308-5.143,5.146Z"/><path fill="#3a3128" d="M79.215,197.166l28.678,28.678c.608.608.914,1.406.914,2.203s-.306,1.595-.914,2.203c-1.217,1.217-3.186,1.217-4.406,0l-26.856-26.856"/><path fill="#f07e07" d="M127.337,97.385c0,7.185-5.824,13.005-13.008,13.005s-13.002-5.821-13.002-13.005,5.818-13.011,13.002-13.011,13.008,5.824,13.008,13.011Z"/><path fill="#87bd27" d="M113.585,50.786s-14.669,14.876-1.547,24.401c13.728-9.493,1.547-24.401,1.547-24.401Z"/><path fill="#87bd27" d="M19.472,109.761s17.016,12.124,24.338-2.344c-11.549-12.049-24.338,2.344-24.338,2.344Z"/><path fill="#87bd27" d="M22.523,80.492s2.584,20.732,18.194,16.338c1.061-16.656-18.194-16.338-18.194-16.338Z"/><path fill="#87bd27" d="M141.496,66.804s-20.136-5.587-22.078,10.509c14.966,7.388,22.078-10.509,22.078-10.509Z"/><path fill="#3a3128" d="M78.399,95.905c7.529-5.341,12.658-7.514,21.08-13.254s18.667-4.178,16.92-2.752c.839.98-4.796-2.5-18.044,7.727-10.089,7.787-18.772,13.896-20.831,14.987"/><path fill="#3a3128" d="M77.056,111.212c.012.081.027.165.03.246.177,1.906-1.223,3.723-3.132,3.759-28.463.572-34.352-22.843-28.397-14.816,5.17,6.564,15.688,11.192,33.054,9.391,1.816-.189-1.96,1.28-1.673,3.054l.114-1.637h0l.003.003Z"/></svg>