<?xml version="1.0" encoding="UTF-8" standalone="no"?><svg xmlns="http://www.w3.org/2000/svg" xmlns:xlink="http://www.w3.org/1999/xlink" contentScriptType="text/ecmascript" zoomAndPan="magnify" contentStyleType="text/css" stroke="#000000" stroke-linecap="square" version="1" width="214" stroke-miterlimit="10" fill="#000000" preserveAspectRatio="xMidYMid meet" viewBox="0 0 214.28 145.97" height="146"><defs><clipPath id="a"><path d="M0 0V145.97H214.28V0Z"/></clipPath><clipPath id="b" clip-path="url(#a)"><path d="M-5 153.11H216.99V-5.89H-5Z"/></clipPath><clipPath id="c" clip-path="url(#b)"><path d="M-5-5.89H216.99V153.11H-5Z"/></clipPath></defs><g><g fill="#373028" stroke="none"><path d="M81.58 122.63c-.64 0-1.15-.52-1.15-1.16V107.8L97.66 90.57c.45-.45 1.18-.45 1.63 0s.45 1.18 0 1.63L82.74 108.75v12.72c0 .64-.52 1.16-1.15 1.16" clip-path="url(#c)"/><path d="M63.12 115.82c-.29 0-.59-.11-.82-.34-.45-.45-.45-1.18 0-1.63l6.76-6.76H81.07l5.32-5.32H72.5c-.64 0-1.15-.52-1.15-1.15s.52-1.15 1.15-1.15H91.97l-9.94 9.94H70.02l-6.08 6.08c-.23.23-.52.34-.82.34" clip-path="url(#c)"/><path d="M68.28 98.71c-1.05 0-1.91.86-1.91 1.91s.85 1.9 1.91 1.9 1.91-.85 1.91-1.9-.85-1.91-1.91-1.91m0 6.12c-2.32 0-4.22-1.89-4.22-4.22s1.89-4.22 4.22-4.22 4.22 1.89 4.22 4.22-1.89 4.22-4.22 4.22" clip-path="url(#c)"/><path d="M61.02 114.94c-1.05 0-1.91.85-1.91 1.91s.86 1.91 1.91 1.91 1.91-.85 1.91-1.91-.85-1.91-1.91-1.91m0 6.12c-2.33 0-4.22-1.89-4.22-4.22s1.89-4.22 4.22-4.22 4.22 1.89 4.22 4.22-1.89 4.22-4.22 4.22" clip-path="url(#c)"/><path d="M81.46 122.74c-1.05 0-1.91.85-1.91 1.91s.86 1.91 1.91 1.91 1.91-.85 1.91-1.91-.86-1.91-1.91-1.91m0 6.12c-2.33 0-4.22-1.89-4.22-4.22s1.89-4.22 4.22-4.22 4.22 1.89 4.22 4.22-1.89 4.22-4.22 4.22" clip-path="url(#c)"/><path d="M93.04 113.14c-.29 0-.59-.11-.82-.34-.45-.45-.45-1.18 0-1.63l8.05-8.05V90.3c0-.64.52-1.15 1.15-1.15s1.15.52 1.15 1.15v13.77l-8.72 8.72c-.23.23-.52.34-.82.34" clip-path="url(#c)"/><path d="M99.73 134.81c-.64 0-1.15-.52-1.15-1.16V120.14l8.88-8.88-6.85-6.85c-.45-.45-.45-1.18 0-1.63s1.18-.45 1.63 0l8.48 8.48-9.84 9.84v12.55c0 .64-.52 1.16-1.15 1.16" clip-path="url(#c)"/><path d="M91.02 112.55c-1.05 0-1.91.85-1.91 1.91s.86 1.91 1.91 1.91 1.91-.85 1.91-1.91-.85-1.91-1.91-1.91m0 6.12c-2.33 0-4.22-1.89-4.22-4.22s1.89-4.22 4.22-4.22 4.22 1.89 4.22 4.22-1.89 4.22-4.22 4.22" clip-path="url(#c)"/><path d="M99.55 134.84c-1.05 0-1.91.85-1.91 1.91s.85 1.91 1.91 1.91 1.91-.86 1.91-1.91-.86-1.91-1.91-1.91m0 6.13c-2.32 0-4.22-1.89-4.22-4.22s1.89-4.22 4.22-4.22 4.22 1.89 4.22 4.22-1.89 4.22-4.22 4.22" clip-path="url(#c)"/><path d="M133.8 106.41H117.86L103.62 92.16c-.45-.45-.45-1.18 0-1.63s1.18-.45 1.63 0l13.57 13.57H133.8c.64 0 1.15.52 1.15 1.16s-.52 1.15-1.15 1.15" clip-path="url(#c)"/><path d="M118.34 120.32c-.64 0-1.15-.52-1.15-1.15v-16.7l12.4 12.4c.45.45.45 1.18 0 1.63s-1.18.45-1.63 0l-8.46-8.46v11.12c0 .64-.52 1.15-1.15 1.15" clip-path="url(#c)"/><path d="M118.56 120.77c-1.05 0-1.91.85-1.91 1.91s.85 1.91 1.91 1.91 1.91-.86 1.91-1.91-.85-1.91-1.91-1.91m0 6.13c-2.32 0-4.22-1.89-4.22-4.22s1.89-4.22 4.22-4.22 4.22 1.89 4.22 4.22-1.89 4.22-4.22 4.22" clip-path="url(#c)"/><path d="M130.61 116.1c-1.05 0-1.91.85-1.91 1.91s.86 1.91 1.91 1.91 1.91-.86 1.91-1.91-.86-1.91-1.91-1.91m0 6.13c-2.33 0-4.22-1.89-4.22-4.22s1.89-4.22 4.22-4.22 4.22 1.89 4.22 4.22-1.89 4.22-4.22 4.22" clip-path="url(#c)"/><path d="M136.76 103.31c-1.05 0-1.91.85-1.91 1.91s.86 1.91 1.91 1.91 1.91-.85 1.91-1.91-.86-1.91-1.91-1.91m0 6.12c-2.33 0-4.22-1.89-4.22-4.22s1.89-4.22 4.22-4.22 4.22 1.89 4.22 4.22-1.89 4.22-4.22 4.22" clip-path="url(#c)"/><path fill="#ef7d00" d="M148.89 52.25c0 2.4-1.94 4.34-4.34 4.34s-4.34-1.94-4.34-4.34 1.94-4.34 4.34-4.34 4.34 1.94 4.34 4.34" clip-path="url(#c)"/><path fill="#ef7d00" d="M127.8 67.11c0 2.4-1.94 4.34-4.34 4.34s-4.34-1.94-4.34-4.34 1.94-4.34 4.34-4.34 4.34 1.94 4.34 4.34" clip-path="url(#c)"/><path fill="#ef7d00" d="M63.67 47.68c0 2.4-1.94 4.34-4.34 4.34s-4.34-1.94-4.34-4.34 1.94-4.34 4.34-4.34 4.34 1.94 4.34 4.34" clip-path="url(#c)"/><path fill="#ef7d00" d="M84 47.36c0 2.4-1.94 4.34-4.34 4.34s-4.34-1.94-4.34-4.34 1.94-4.34 4.34-4.34S84 44.96 84 47.36" clip-path="url(#c)"/><path fill="#ef7d00" d="M106.42 56.6c0 2.39-1.94 4.34-4.34 4.34S97.74 59 97.74 56.6s1.94-4.34 4.34-4.34 4.34 1.94 4.34 4.34" clip-path="url(#c)"/><path fill="#ef7d00" d="M96.42 28.01c0 2.4-1.94 4.34-4.34 4.34s-4.34-1.94-4.34-4.34 1.94-4.34 4.34-4.34 4.34 1.94 4.34 4.34" clip-path="url(#c)"/><path fill="#ef7d00" d="M129.98 41.04c0 2.4-1.94 4.34-4.34 4.34s-4.34-1.94-4.34-4.34 1.94-4.34 4.34-4.34 4.34 1.94 4.34 4.34" clip-path="url(#c)"/><path fill="#ef7d00" d="M74.36 67.46c0 2.4-1.94 4.34-4.34 4.34s-4.34-1.94-4.34-4.34 1.94-4.34 4.34-4.34 4.34 1.94 4.34 4.34" clip-path="url(#c)"/><path fill="#86bc25" d="M69.59 33.95c0 0-5.94 3.65-2.44 7.79 5.2-1.99 2.44-7.79 2.44-7.79" clip-path="url(#c)"/><path fill="#86bc25" d="M74.06 38.32c0 0-6.26 3.05-3.19 7.51 5.37-1.47 3.19-7.51 3.19-7.51" clip-path="url(#c)"/><path fill="#86bc25" d="M82.95 24.4c0 0-6.31 2.96-3.31 7.46 5.39-1.38 3.31-7.46 3.31-7.46" clip-path="url(#c)"/><path fill="#86bc25" d="M105.97 21.49c0 0-5.66 4.08-1.87 7.94 5.05-2.36 1.87-7.94 1.87-7.94" clip-path="url(#c)"/><path fill="#86bc25" d="M101.97 16.4c0 0-5.66 4.07-1.87 7.94 5.04-2.36 1.87-7.94 1.87-7.94" clip-path="url(#c)"/><path fill="#86bc25" d="M95.33 11.94c0 0-3.61 5.96 1.39 8.04 3.72-4.14-1.39-8.04-1.39-8.04" clip-path="url(#c)"/><path fill="#86bc25" d="M87.95 14.44c0 0-.09 6.97 5.27 6.23 1.11-5.45-5.27-6.23-5.27-6.23" clip-path="url(#c)"/><path fill="#86bc25" d="M115.33 19.91c0 0-3.67 5.93 1.31 8.05 3.76-4.11-1.31-8.05-1.31-8.05" clip-path="url(#c)"/><path fill="#86bc25" d="M113.05 5c0 0-4.86 4.99-.46 8.15 4.56-3.2.46-8.15.46-8.15" clip-path="url(#c)"/><path fill="#86bc25" d="M81.02 18.02c0 0-6.54 2.42-3.92 7.16 5.49-.93 3.92-7.16 3.92-7.16" clip-path="url(#c)"/><path fill="#86bc25" d="M94.72 41.75c0 0-6.97.19-6.01 5.51 5.5.89 6.01-5.51 6.01-5.51" clip-path="url(#c)"/><path fill="#86bc25" d="M95.46 48.61c0 0-6.92-.83-6.75 4.58 5.31 1.68 6.75-4.58 6.75-4.58" clip-path="url(#c)"/><path fill="#86bc25" d="M93.23 35.53c0 0-6.87 1.16-5.18 6.3 5.56.11 5.18-6.3 5.18-6.3" clip-path="url(#c)"/><path fill="#86bc25" d="M54.84 58.41c0 0 3.81 5.84 7.85 2.24-2.12-5.15-7.85-2.24-7.85-2.24" clip-path="url(#c)"/><path fill="#86bc25" d="M61.98 54.95c0 0 1.67 6.77 6.67 4.7-.3-5.56-6.67-4.7-6.67-4.7" clip-path="url(#c)"/><path fill="#86bc25" d="M69.66 53.47c0 0-.9 6.91 4.5 6.8 1.74-5.29-4.5-6.8-4.5-6.8" clip-path="url(#c)"/><path fill="#86bc25" d="M124.13 52.41c0 0 1.7 6.76-3.68 7.28-2.34-5.05 3.68-7.28 3.68-7.28" clip-path="url(#c)"/><path fill="#86bc25" d="M117.27 54.5c0 0 2.78 6.39-2.45 7.78-3.13-4.6 2.45-7.78 2.45-7.78" clip-path="url(#c)"/><path fill="#86bc25" d="M75.36 12.4c0 0-5.5 4.28-1.58 8 4.95-2.54 1.58-8 1.58-8" clip-path="url(#c)"/><path fill="#86bc25" d="M56.12 69.76c0 0 6.96-.29 5.93-5.61-5.51-.81-5.93 5.61-5.93 5.61" clip-path="url(#c)"/><path fill="#86bc25" d="M66.46 18.7c0 0-.21 6.97 5.16 6.32 1.2-5.44-5.16-6.32-5.16-6.32" clip-path="url(#c)"/><path fill="#86bc25" d="M105.73 10.04c0 0-1.57 6.79 3.83 7.21 2.24-5.1-3.83-7.21-3.83-7.21" clip-path="url(#c)"/><path fill="#86bc25" d="M67.19 26.92c0 0 1.64 6.78 6.65 4.73-.28-5.56-6.65-4.73-6.65-4.73" clip-path="url(#c)"/><path fill="#86bc25" d="M109.04 36.44c0 0 1.14 6.88 6.29 5.2.13-5.56-6.29-5.2-6.29-5.2" clip-path="url(#c)"/><path fill="#86bc25" d="M97.78 32.57c0 0-1.57 6.79 3.83 7.21 2.24-5.1-3.83-7.21-3.83-7.21" clip-path="url(#c)"/><path fill="#86bc25" d="M96.64 40.15c0 0-.12 6.97 5.24 6.25 1.13-5.45-5.24-6.25-5.24-6.25" clip-path="url(#c)"/><path fill="#86bc25" d="M110.29 29.6c0 0 .38 6.96 5.68 5.85.73-5.52-5.68-5.85-5.68-5.85" clip-path="url(#c)"/><path fill="#86bc25" d="M107.71 42.33c0 0 1.19 6.87 6.32 5.16.09-5.56-6.32-5.16-6.32-5.16" clip-path="url(#c)"/><path fill="#86bc25" d="M61.88 29.85c0 0-3.62 5.96 1.36 8.04 3.73-4.13-1.36-8.04-1.36-8.04" clip-path="url(#c)"/><path fill="#86bc25" d="M53.89 35.94c0 0 1.98 6.68 6.88 4.38-.56-5.54-6.88-4.38-6.88-4.38" clip-path="url(#c)"/><path fill="#86bc25" d="M134.21 53.81c0 0-6.72-1.86-7.37 3.51 4.99 2.47 7.37-3.51 7.37-3.51" clip-path="url(#c)"/><path fill="#86bc25" d="M134.2 63.03c0 0-3.77-5.86-7.83-2.29 2.08 5.16 7.83 2.29 7.83 2.29" clip-path="url(#c)"/><path fill="#86bc25" d="M145.11 32.58c0 0 3.64 5.94-1.34 8.05-3.74-4.12 1.34-8.05 1.34-8.05" clip-path="url(#c)"/><path fill="#86bc25" d="M139.43 37.48c0 0 3.26 6.16-1.85 7.95-3.47-4.35 1.85-7.95 1.85-7.95" clip-path="url(#c)"/><path fill="#86bc25" d="M134.51 40.98c0 0 2.19 6.62-3.15 7.53-2.7-4.87 3.15-7.53 3.15-7.53" clip-path="url(#c)"/><path fill="#86bc25" d="M154.06 36.67c0 0-6.88-1.14-6.95 4.28 5.23 1.92 6.95-4.28 6.95-4.28" clip-path="url(#c)"/><path fill="#86bc25" d="M135.26 19.9c0 0 1.33 6.84-4.08 7.07-2.06-5.17 4.08-7.07 4.08-7.07" clip-path="url(#c)"/><path fill="#86bc25" d="M128.27 21.28c0 0 3.26 6.16-1.85 7.95-3.47-4.35 1.85-7.95 1.85-7.95" clip-path="url(#c)"/><path fill="#86bc25" d="M121.8 23.67c0 0 4.63 5.21.09 8.16-4.41-3.4-.09-8.16-.09-8.16" clip-path="url(#c)"/><path fill="#86bc25" d="M144.19 24.65c0 0-6.41-2.74-7.77 2.5 4.62 3.11 7.77-2.5 7.77-2.5" clip-path="url(#c)"/><path fill="#86bc25" d="M120.82 12.47c0 0-6.91-.88-6.79 4.52 5.3 1.72 6.79-4.52 6.79-4.52" clip-path="url(#c)"/><path fill="#86bc25" d="M141.28 32.94c0 0-3.69-5.91-7.8-2.39 2.02 5.19 7.8 2.39 7.8 2.39" clip-path="url(#c)"/><path fill="#86bc25" d="M135.99 35.74c0 0-3.69-5.91-7.8-2.39 2.02 5.19 7.8 2.39 7.8 2.39" clip-path="url(#c)"/><path fill="#86bc25" d="M153.95 45.23c0 0-4.96-4.9-8.14-.52 3.16 4.58 8.14.52 8.14.52" clip-path="url(#c)"/><path d="M96.32 91.9c3.04-3.71 3.16-20.77-2.68-28.03-1.65-2.06-6.42-3.86-10.35-5.23-3.35-1.17-6.94-2.5-10.03-5.47S62.68 41.92 62.96 40.91c.29-1.06 8.61 8.99 12.06 11.4s6.21 3.15 9.04 4.14c4.45 1.56 8.75 4.08 11.46 6.07 9.09 6.69 9.3 28.39 9.34 28.88.37 4.58-2.68-3.16-2.27 2.23.02.29-1 3.16-1.31 3.16-.18 0-.98-3.44-.97-3.63.09-1.82-.76-1.35-1.49-.51-.93 1.08-2.66-.56-2.5-.76Z" clip-path="url(#c)"/><path d="M85.64 59.32c-.08 0-.17-.01-.25-.03-.62-.13-1.02-.75-.88-1.37 1.02-4.68 1.12-10.64.23-13.3s-.28-5.58.01-8.02c.07-.57.96-5.41 1.08-5.88 1.21-4.65.3 6.04.23 6.64-.27 2.22-.04 5.47.68 7.64 1.17 3.52.98 9 .02 13.41-.12.54-.59.91-1.13.91Z" clip-path="url(#c)"/><path d="M101.71 87.35c-.59 0-.77-9.27-.82-9.87-.03-.39-.31-7.22 2.44-12.49 1.2-2.31 5.62-7.62 7.33-9.73 2.1-2.6 4.28-5.3 5.35-8.18 1.9-5.13.83-11.83.69-17.31s3.57 12.48 1.48 18.11c-1.2 3.24-3.5 6.08-5.72 8.83-1.71 2.12-3.6 4-4.42 6.22-6.14 14.88-1.26 29.17-.55 29.82.44.47-5.74-5.4-5.78-5.4Z" clip-path="url(#c)"/><path d="M111 55.85c-.38 0-.76-.19-.98-.54-.45-.72-1.06-1.56-1.72-2.45-2.34-3.19-5.24-7.16-5.07-11.28.1-2.54 2.06-7.01 4.16-11.93 2.54-5.96 3.56-10.03 4.47-13.08 1.76-5.88-.7 8.18-2.85 13.45-1.86 4.56-3.39 9.52-3.48 11.66-.14 3.31 2.5 6.91 4.63 9.81.68.93 1.32 1.8 1.81 2.59.34.54.17 1.25-.37 1.59-.19.12-.4.18-.61.18Z" clip-path="url(#c)"/><path d="M75.45 62.45c-8.54-1.15-12.52.95-12.36.29s3.24-1.64 9.25-1.53c1.84.03 7.06.08 8.48.19 4.89.38 6.44.82 9.23-.58.57-.29 1.88.3 2.17.87s2.18 1.5 1.61 1.78c-2.46 1.23-14.04-.44-18.37-1.02Z" clip-path="url(#c)"/><path d="M93.46 61.43c-.03 0-.06 0-.08 0-.64-.04-1.16-.6-1.07-1.23 1.33-9.4 11.55-11.17 8.58-9.64-3.91 2.02-6.14 4.5-6.56 11.72-.03.61-.28-.85-.88-.85Z" clip-path="url(#c)"/><path d="M104.75 70.82c-.56-.31-.77-1.01-.46-1.57 1.52-2.79 2.58-2.9 5.08-4.21 2.55-1.34 5.14-1.46 7.37-2.32 2.31-.89 6.84-3.26 7.61-3.59 4.44-1.87-2.06 2.42-5.14 3.83-2.16.98-8.14 3.05-8.83 3.42-2.41 1.27-4.47 3.07-4.92 5.79-.07.43-.53-1.26-.71-1.35 0 0 0 0 0 0" clip-path="url(#c)"/><path d="M118.16 40.17c-.26 0 .03-.59-.18-.76-.49-.41-.56-1.14-.16-1.63.44-.54 1.4-.88 1.79-1.35 1.47-1.79 3.34-3.25 5.27-4.21.55-.27 1.52-.7 2.04-.91 3.23-1.28 2.87-1.12 6.25-3.58s-1.03 2.53-4.65 3.96c-.51.21-2.42.97-3.13 1.4-2.78 1.66-3.39 2.87-4.54 4.48-.35.51-1.82 2.28-2.31 2.89-.23.28-.05-.29-.38-.29" clip-path="url(#c)"/><path d="M84.88 43.35c-.37 0 .07 1.26-.09.9-.81-1.86-2.29-3.56-3.35-4.47-1.64-1.41-3.76-3.42-4.81-5.76-2.26-5.03-3.76-11.76-2.84-12.04.4-.12 1.2 6.32 4.4 11.7 1.54 2.59 3.06 3.51 4.57 4.81 1.13.97 1.98 1.44 3.07 3.05.36.53.22 1.25-.31 1.6-.2.14-.42.2-.65.2 0 0 0 0 0 0" clip-path="url(#c)"/><path d="M105.01 37.62c-.45 0-2.94-4.25-3.7-5.83-1.42-2.98-3.54-6.18-6.14-8.93-3.6-5.41 8.36 7.04 10.9 13.16.25.59-.03 1.26-.62 1.51-.14.06-.29.09-.44.09Z" clip-path="url(#c)"/><path d="M128.99 51.58c-2.08 0-5.26-.12-7.33-.36-3.51-.4-4.86.41-6 .73-.61.17-.23-.32-.4-.94s.19-1.25.8-1.42c1.54-.43 4.12-.22 7.1.03 4.21.35 9.4.69 12.08-.69 5.11-2.64 7.29-5.07 9.12-6.48 4.11-2.69-3.47 4.96-8.35 7.69-1.84 1.03-4.33 1.45-7.03 1.45" clip-path="url(#c)"/><path d="M5.07 86.93l.52-.89c.12-.2.36-.2.49-.1.07.04 1.24.89 2.17.89.75 0 1.31-.49 1.31-1.11 0-.74-.62-1.24-1.83-1.73-1.35-.55-2.71-1.41-2.71-3.11 0-1.28.95-2.77 3.24-2.77 1.47 0 2.59.75 2.88.97.14.09.19.33.09.47l-.55.82c-.12.17-.33.29-.5.17-.11-.07-1.21-.79-2-.79-.82 0-1.27.55-1.27 1.01 0 .68.53 1.14 1.7 1.61 1.4.56 3.01 1.4 3.01 3.26 0 1.48-1.28 2.85-3.31 2.85-1.81 0-2.88-.85-3.17-1.12-.13-.13-.2-.2-.07-.43v0Z" clip-path="url(#c)"/><path d="M19.36 86.61c1.81 0 3.31-1.48 3.31-3.3s-1.5-3.33-3.31-3.33-3.3 1.51-3.3 3.33 1.48 3.3 3.3 3.3m0-8.5c2.88 0 5.18 2.32 5.18 5.2s-2.31 5.17-5.18 5.17-5.17-2.29-5.17-5.17 2.29-5.2 5.17-5.2" clip-path="url(#c)"/><path d="M27.87 78.53c0-.14.12-.27.27-.27H34c.16 0 .27.13.27.27v1.18c0 .14-.12.27-.27.27H29.74V82.7H33.3c.14 0 .27.13.27.27v1.18c0 .14-.13.27-.27.27H29.74v3.64c0 .14-.13.27-.27.27H28.14c-.16 0-.27-.13-.27-.27V78.54Z" clip-path="url(#c)"/><path d="M38.79 79.99h-2.2c-.16 0-.27-.13-.27-.27V78.53c0-.14.12-.27.27-.27h6.29c.16 0 .27.13.27.27v1.18c0 .14-.11.27-.27.27h-2.2v8.08c0 .14-.13.27-.27.27H39.06c-.14 0-.27-.13-.27-.27V79.99Z" clip-path="url(#c)"/><path d="M45.2 78.61c-.06-.2.06-.35.26-.35h1.33c.12 0 .23.1.26.2l1.5 5.75h.06l2.29-5.93c.03-.09.1-.16.24-.16h.26c.14 0 .22.07.24.16l2.31 5.93H54l1.47-5.75c.03-.1.14-.2.26-.2h1.33c.2 0 .32.14.26.35l-2.72 9.68c-.03.11-.14.2-.26.2H54.1c-.13 0-.22-.07-.25-.16L51.27 81.8H51.2l-2.55 6.53c-.04.09-.1.16-.25.16h-.23c-.11 0-.23-.09-.26-.2l-2.72-9.68Z" clip-path="url(#c)"/><path d="M64.96 84.9l-1.44-3.17h-.04L62.06 84.9Zm-6.22 3.07l4.48-9.69c.04-.09.12-.16.25-.16h.14c.14 0 .2.07.25.16l4.44 9.69c.09.19-.03.37-.24.37H66.78c-.22 0-.32-.09-.42-.29l-.71-1.56H61.35l-.71 1.56c-.06.14-.19.29-.42.29H58.98c-.22 0-.33-.19-.24-.37Z" clip-path="url(#c)"/><path d="M75.27 82.86c.76 0 1.43-.66 1.43-1.47 0-.76-.66-1.4-1.43-1.4H72.92v2.87c0 0 2.35 0 2.35 0m-4.23-4.32c0-.14.11-.27.27-.27h4.12c1.73 0 3.14 1.38 3.14 3.1 0 1.33-.88 2.4-2.13 2.91l1.97 3.66c.1.19 0 .42-.25.42H76.65c-.13 0-.2-.07-.23-.13L74.5 84.4h-1.6v3.67c0 .14-.13.27-.27.27H71.31c-.16 0-.27-.13-.27-.27V78.53h0Z" clip-path="url(#c)"/><path d="M82.07 78.53c0-.14.11-.27.27-.27H88.2c.16 0 .27.13.27.27v1.18c0 .14-.11.27-.27.27H83.94v2.36H87.5c.14 0 .27.13.27.27v1.2c0 .16-.13.27-.27.27H83.94v2.52H88.2c.16 0 .27.13.27.27v1.18c0 .14-.11.27-.27.27H82.34c-.16 0-.27-.13-.27-.27V78.54Z" clip-path="url(#c)"/><path d="M115.47 82.93c.81 0 1.48-.65 1.48-1.5 0-.79-.68-1.4-1.48-1.4H113.8v2.89c0 0 1.67 0 1.67 0m-3.54-4.39c0-.14.11-.27.27-.27h3.39c1.77 0 3.23 1.44 3.23 3.18 0 1.79-1.46 3.24-3.21 3.24h-1.8v3.38c0 .14-.13.27-.27.27H112.2c-.16 0-.27-.13-.27-.27Z" clip-path="url(#c)"/><path d="M121.89 78.53c0-.14.12-.27.27-.27h1.32c.15 0 .27.13.27.27v8.08h3.67c.16 0 .27.13.27.27v1.18c0 .14-.12.27-.27.27h-5.27c-.16 0-.27-.13-.27-.27V78.54Z" clip-path="url(#c)"/><path d="M135.98 84.9l-1.44-3.17h-.04l-1.41 3.17Zm-6.22 3.07l4.48-9.69c.04-.09.12-.16.24-.16h.15c.14 0 .2.07.24.16l4.44 9.69c.09.19-.03.37-.25.37h-1.25c-.21 0-.32-.09-.42-.29l-.71-1.56h-4.31l-.71 1.56c-.06.14-.19.29-.42.29H130c-.22 0-.33-.19-.24-.37h0Z" clip-path="url(#c)"/><path d="M142.06 78.38c0-.14.13-.26.27-.26h.36l5.99 6.37h.01V78.53c0-.14.12-.27.27-.27h1.32c.15 0 .27.13.27.27v9.69c0 .14-.13.26-.27.26h-.35l-6.02-6.61h-.01v6.19c0 .14-.12.27-.27.27h-1.31c-.14 0-.27-.13-.27-.27V78.38Z" clip-path="url(#c)"/><path d="M155.99 79.99h-2.21c-.16 0-.27-.13-.27-.27V78.53c0-.14.11-.27.27-.27h6.29c.16 0 .27.13.27.27v1.18c0 .14-.12.27-.27.27h-2.2v8.08c0 .14-.13.27-.27.27h-1.34c-.14 0-.27-.13-.27-.27V79.99Z" clip-path="url(#c)"/><path d="M167.65 84.9l-1.44-3.17h-.04l-1.41 3.17Zm-6.22 3.07l4.48-9.69c.04-.09.12-.16.24-.16h.15c.14 0 .2.07.24.16l4.44 9.69c.09.19-.03.37-.25.37h-1.25c-.22 0-.32-.09-.42-.29l-.71-1.56h-4.31l-.71 1.56c-.06.14-.19.29-.42.29h-1.25c-.22 0-.33-.19-.24-.37Z" clip-path="url(#c)"/><path d="M174.55 79.99h-2.21c-.16 0-.27-.13-.27-.27V78.53c0-.14.11-.27.27-.27h6.29c.16 0 .27.13.27.27v1.18c0 .14-.12.27-.27.27h-2.2v8.08c0 .14-.13.27-.27.27h-1.34c-.14 0-.27-.13-.27-.27V79.99Z" clip-path="url(#c)"/><path d="M181.85 78.53c0-.14.13-.27.27-.27h1.34c.14 0 .27.13.27.27v9.53c0 .14-.13.27-.27.27h-1.34c-.14 0-.27-.13-.27-.27Z" clip-path="url(#c)"/><path d="M192.25 86.61c1.82 0 3.31-1.48 3.31-3.3s-1.5-3.33-3.31-3.33-3.3 1.51-3.3 3.33 1.48 3.3 3.3 3.3m0-8.5c2.88 0 5.18 2.32 5.18 5.2s-2.3 5.17-5.18 5.17-5.17-2.29-5.17-5.17 2.29-5.2 5.17-5.2" clip-path="url(#c)"/><path d="M200.77 78.38c0-.14.13-.26.27-.26h.36l5.99 6.37h.01V78.53c0-.14.12-.27.27-.27H209c.15 0 .27.13.27.27v9.69c0 .14-.13.26-.27.26h-.35l-6.02-6.61h-.01v6.19c0 .14-.12.27-.27.27h-1.31c-.14 0-.27-.13-.27-.27V78.38Z" clip-path="url(#c)"/></g></g></svg>