<?xml version="1.0" encoding="UTF-8" standalone="no"?><svg xmlns="http://www.w3.org/2000/svg" xmlns:xlink="http://www.w3.org/1999/xlink" contentScriptType="text/ecmascript" fill="#000000" width="1000" zoomAndPan="magnify" contentStyleType="text/css" viewBox="0 0 1000 500.4" height="500" preserveAspectRatio="xMidYMid meet" version="1"><g><g><path fill="#8e847e" d="M726.1,394.6c-1.6-.3-9-2.2-10.5-2.6-29.4-8.1-55.9-25.7-74.9-47-4-4.6-10.8-11.3-14.3-16.3l-24.4-30-58.9,3.1-3.5,59.7,11.4,13.2,17.1,19.7h0c7.2,9.2,15,17.7,23.4,25.6h0c32.1,30.5,78.9,53.6,125.4,61.9l-38.3-52.7,47.4-34.6h0Z"/><path fill="#8e847e" d="M529.2,349.4l-30-35.1-.2.3-58.3-67.2.4-.5-76.7-89.4c-.5-.6-1-1.4-1.5-2l-.7-.9-2.8-59.1,63.9-3,75.9,87.6.2-.2,87.1,100.5,6.2,7.9-60.1,2.7-3.4,58.4h0Z"/><path fill="#88bd28" d="M164.8,125.3c23.6-15.9,51.9-25.1,82.5-25.1s76.6,16.1,103.3,42.1l-2.7-56.6,66.4-3.1-1-1.1C370.7,39.1,312,12.9,247.3,12.9s-103.2,18-142.8,48.3l-4,59.8,64.3,4.3Z"/><path fill="#88bd28" d="M169.5,374.6c-16.3-10-30.6-23.1-42.2-39-.2-.3-.5-.6-.6-1-1-1.4-1.9-2.7-2.9-4.2h0c-5.5-8.3-10.1-17.3-14-26.8h0c-6.9-17.1-10.7-35.8-10.7-55.3,0-44.9,20.1-85.2,51.8-112.4l-62.7-4.2,4-60.6C42.7,114.3,11.5,177.7,11.5,248.3s13,88,35.4,124.1c.2.2.3.5.5.7,1.4,2.3,3,4.7,4.5,6.9.6.9,1.2,1.7,1.8,2.6,1.1,1.7,2.3,3.3,3.5,4.9.9,1.3,1.9,2.5,2.8,3.7.5.6,1,1.3,1.5,1.9,19.3,24.7,43.2,45,69.8,60.1l58.4-20.1-20.2-58.5h0Z"/><g><path fill="#90c03e" d="M247.2,484.2h1.4-3.2c.6-.1,1.2,0,1.8,0Z"/><path fill="#90c03e" d="M248.3,396.7c1.9,0,3.9-.1,5.7-.2-1.8.2-3.8.2-5.7.2Z"/><path fill="#90c03e" d="M243.1,484.1c-1.7,0-3.3-.1-5-.2,1.7.1,3.3.2,5,.2Z"/><path fill="#90c03e" d="M253.8,484c-.6,0-1.2,0-1.9.1.7,0,1.3,0,1.9-.1Z"/><path fill="#90c03e" d="M246.4,396.8c-1.8,0-3.5-.1-5.2-.2,1.8.1,3.5.1,5.2.2Z"/><path fill="#40a1d0" d="M258.2,483.8c-1.4.1-2.9.1-4.3.2,1.3,0,2.8-.1,4.3-.2Z"/><path fill="#40a1d0" d="M184.7,382.8h0c17.3,8.1,36.4,13,56.5,13.9-19.6-1-38.9-5.7-56.5-13.9Z"/><path fill="#40a1d0" d="M248.3,396.7h-1.9,1.9,0Z"/><path fill="#88bd28" d="M574.9,95.6l-217.6,251.1-12.2,13c-24.4,21.5-56,35.1-90.5,36.8h-.5c-1.9.1-3.9.2-5.7.2h-1.8c-1.8,0-3.5-.1-5.2-.2-20.1-.8-39.2-5.6-56.5-13.8l19.9,57.8-58.9,20.3c28.8,13.7,60.2,21.7,92.4,23h.1c1.7.1,3.3.1,5,.2h8.7c.6,0,1.2,0,1.9-.1,1.4-.1,2.9-.1,4.3-.2h.6c25.5-1.2,51.3-6.6,76.3-16.7h0c25.4-10.2,48.5-24.7,68.6-42.7l11.1-11.7,49.9-57.1,34.6-40.3.3.4,58.6-67.2-.5-.6,74.6-87c1-1.3,1.9-2.6,2.9-3.9l.9-60.5-61.3-.8h0Z"/></g><path fill="#ef7d05" d="M842.5,30.1c-29.2-12-60.5-17.9-91.6-17.6h-1.2c0,.1.3.5.3.5-64.6.7-123,27.6-165.2,70.5l-.8.9,64.7,1-.9,58.5c26.8-27,63.9-43.6,104.9-43.6s40.1,4.2,57.9,11.8l46.9-25-15-57h0Z"/><path fill="#ef7d05" d="M824.8,119c6.4,3.6,12.6,7.7,18.4,12.2l12.2,10.5c27.6,26.6,44.9,63.6,45.5,104.7,0,0-.7,29.2-7.1,47.8l22.7,52.9,60.6-27c7.2-22.6,11.1-46.7,11.1-71.7s-2.3-34.4-2.3-34.4c-7-48.6-29.2-95.4-66.4-132.7-18.4-18.4-39-33-61-44.1l13.4,56.5-47.1,25.3h0Z"/><path fill="#ef7d05" d="M971.6,335.7c-11.4,29.2-29,56.5-52.5,80-40.2,40.2-91.3,62.7-143.8,67.8,0,0-28.8,2.6-44.5,0l-37.5-52.2,47.2-34.6c3.1.2,6.8.1,12.3.1,40.1,0,76.7-15.5,103.4-41.6,0,0,.7-.8,1.2-1.3,3.5-3.5,6.6-7,9.7-10.7v-.4c8.4-10.1,15.5-21.4,20.9-33.6l23,53.2,60.6-26.7h0Z"/></g></g></svg>