<svg xmlns="http://www.w3.org/2000/svg" viewBox="0 0 260 260" role="img" aria-label="Operative Substanz">
  <path d="M74 134a56 56 0 0 1 82-50l16-18 6 58-58-5 18-19a34 34 0 0 0-42 50" fill="none" stroke="#86bc25" stroke-width="12" stroke-linecap="round" stroke-linejoin="round"/>
  <path d="M186 126a56 56 0 0 1-82 50l-16 18-6-58 58 5-18 19a34 34 0 0 0 42-50" fill="none" stroke="#ef7d00" stroke-width="12" stroke-linecap="round" stroke-linejoin="round"/>
  <path d="M130 72v-28M130 188v28M72 130H44M188 130h28" fill="none" stroke="#373028" stroke-width="8" stroke-linecap="round"/>
  <circle cx="130" cy="130" r="18" fill="#373028"/>
  <circle cx="130" cy="130" r="7" fill="#fbfaf6"/>
</svg>
